<svg width="612" height="107" viewBox="0 0 612 107" fill="none" xmlns="http://www.w3.org/2000/svg">
<rect y="17" width="612" height="3" fill="#D9D9D9"/>
<rect y="75" width="612" height="3" fill="#D9D9D9"/>
<g filter="url(#filter0_d_15_168)">
<path d="M29.592 85C28.184 85 27 84.52 26.04 83.56C25.08 82.6 24.6 81.416 24.6 80.008V15.016C24.6 13.544 25.08 12.36 26.04 11.464C27 10.504 28.184 10.024 29.592 10.024H52.536C56.888 10.024 60.696 10.888 63.96 12.616C67.288 14.28 69.88 16.616 71.736 19.624C73.656 22.632 74.616 26.088 74.616 29.992C74.616 33.128 73.752 35.976 72.024 38.536C70.36 41.032 68.056 43.016 65.112 44.488C69.336 45.512 72.728 47.528 75.288 50.536C77.848 53.544 79.128 57.48 79.128 62.344C79.128 66.76 78.072 70.664 75.96 74.056C73.912 77.448 71.032 80.136 67.32 82.12C63.608 84.04 59.352 85 54.552 85H29.592ZM34.584 75.784H54.552C57.496 75.784 60.088 75.272 62.328 74.248C64.568 73.224 66.328 71.72 67.608 69.736C68.888 67.752 69.528 65.288 69.528 62.344C69.528 59.592 68.888 57.32 67.608 55.528C66.328 53.736 64.568 52.392 62.328 51.496C60.088 50.536 57.496 50.056 54.552 50.056H34.584V75.784ZM34.584 40.84H52.536C56.184 40.84 59.16 39.944 61.464 38.152C63.832 36.36 65.016 33.64 65.016 29.992C65.016 26.344 63.832 23.656 61.464 21.928C59.16 20.136 56.184 19.24 52.536 19.24H34.584V40.84ZM111.447 85C110.039 85 108.855 84.52 107.895 83.56C106.935 82.6 106.455 81.416 106.455 80.008V14.536C106.455 13.192 106.935 12.104 107.895 11.272C108.855 10.44 110.039 10.024 111.447 10.024C112.919 10.024 114.103 10.44 114.999 11.272C115.959 12.104 116.439 13.192 116.439 14.536V38.92H132.567C137.367 38.92 141.623 39.88 145.335 41.8C149.047 43.72 151.927 46.376 153.975 49.768C156.087 53.096 157.143 56.968 157.143 61.384C157.143 65.992 156.087 70.088 153.975 73.672C151.927 77.192 149.047 79.976 145.335 82.024C141.623 84.008 137.367 85 132.567 85H111.447ZM116.439 75.784H132.567C135.511 75.784 138.103 75.24 140.343 74.152C142.583 73.064 144.343 71.464 145.623 69.352C146.903 67.176 147.543 64.52 147.543 61.384C147.543 58.184 146.903 55.592 145.623 53.608C144.343 51.56 142.583 50.056 140.343 49.096C138.103 48.072 135.511 47.56 132.567 47.56H116.439V75.784ZM173.367 85C171.959 85 170.775 84.52 169.815 83.56C168.855 82.6 168.375 81.416 168.375 80.008V15.016C168.375 13.544 168.855 12.36 169.815 11.464C170.775 10.504 171.959 10.024 173.367 10.024C174.775 10.024 175.927 10.504 176.823 11.464C177.783 12.36 178.263 13.544 178.263 15.016V80.008C178.263 81.416 177.783 82.6 176.823 83.56C175.927 84.52 174.775 85 173.367 85ZM214.958 85C213.55 85 212.366 84.52 211.406 83.56C210.446 82.6 209.966 81.416 209.966 80.008V15.016C209.966 13.544 210.446 12.36 211.406 11.464C212.366 10.504 213.55 10.024 214.958 10.024H237.902C242.254 10.024 246.062 10.888 249.326 12.616C252.654 14.28 255.246 16.616 257.102 19.624C259.022 22.632 259.982 26.088 259.982 29.992C259.982 33.128 259.118 35.976 257.39 38.536C255.726 41.032 253.422 43.016 250.478 44.488C254.702 45.512 258.094 47.528 260.654 50.536C263.214 53.544 264.494 57.48 264.494 62.344C264.494 66.76 263.438 70.664 261.326 74.056C259.278 77.448 256.398 80.136 252.686 82.12C248.974 84.04 244.718 85 239.918 85H214.958ZM219.95 75.784H239.918C242.862 75.784 245.454 75.272 247.694 74.248C249.934 73.224 251.694 71.72 252.974 69.736C254.254 67.752 254.894 65.288 254.894 62.344C254.894 59.592 254.254 57.32 252.974 55.528C251.694 53.736 249.934 52.392 247.694 51.496C245.454 50.536 242.862 50.056 239.918 50.056H219.95V75.784ZM219.95 40.84H237.902C241.55 40.84 244.526 39.944 246.83 38.152C249.198 36.36 250.382 33.64 250.382 29.992C250.382 26.344 249.198 23.656 246.83 21.928C244.526 20.136 241.55 19.24 237.902 19.24H219.95V40.84ZM296.813 85C295.405 85 294.221 84.52 293.261 83.56C292.301 82.6 291.821 81.416 291.821 80.008V15.016C291.821 13.544 292.301 12.36 293.261 11.464C294.221 10.504 295.405 10.024 296.813 10.024H340.205C341.677 10.024 342.861 10.472 343.757 11.368C344.653 12.2 345.101 13.32 345.101 14.728C345.101 16.072 344.653 17.16 343.757 17.992C342.861 18.824 341.677 19.24 340.205 19.24H301.805V42.568H329.357C330.829 42.568 332.013 43.016 332.909 43.912C333.805 44.744 334.253 45.832 334.253 47.176C334.253 48.52 333.805 49.64 332.909 50.536C332.013 51.368 330.829 51.784 329.357 51.784H301.805V75.784H340.205C341.677 75.784 342.861 76.2 343.757 77.032C344.653 77.864 345.101 78.952 345.101 80.296C345.101 81.704 344.653 82.856 343.757 83.752C342.861 84.584 341.677 85 340.205 85H296.813ZM405.12 85.96C399.936 85.96 395.072 85 390.528 83.08C386.048 81.096 382.112 78.376 378.72 74.92C375.392 71.4 372.768 67.304 370.848 62.632C368.992 57.96 368.064 52.904 368.064 47.464C368.064 42.088 368.992 37.096 370.848 32.488C372.768 27.816 375.392 23.752 378.72 20.296C382.112 16.776 386.048 14.024 390.528 12.04C395.008 10.056 399.872 9.064 405.12 9.064C410.048 9.064 414.272 9.704 417.792 10.984C421.376 12.264 424.96 14.376 428.544 17.32C429.056 17.704 429.44 18.12 429.696 18.568C430.016 18.952 430.208 19.368 430.272 19.816C430.4 20.2 430.464 20.68 430.464 21.256C430.464 22.472 430.016 23.496 429.12 24.328C428.288 25.096 427.264 25.544 426.048 25.672C424.832 25.736 423.648 25.32 422.496 24.424C420.128 22.376 417.664 20.808 415.104 19.72C412.608 18.632 409.28 18.088 405.12 18.088C401.344 18.088 397.792 18.856 394.464 20.392C391.136 21.928 388.192 24.04 385.632 26.728C383.136 29.416 381.184 32.552 379.776 36.136C378.368 39.656 377.664 43.432 377.664 47.464C377.664 51.56 378.368 55.4 379.776 58.984C381.184 62.504 383.136 65.608 385.632 68.296C388.192 70.984 391.136 73.096 394.464 74.632C397.792 76.104 401.344 76.84 405.12 76.84C408.384 76.84 411.456 76.296 414.336 75.208C417.28 74.056 420.096 72.488 422.784 70.504C423.936 69.672 425.056 69.32 426.144 69.448C427.296 69.512 428.256 69.96 429.024 70.792C429.792 71.56 430.176 72.648 430.176 74.056C430.176 74.696 430.048 75.336 429.792 75.976C429.536 76.552 429.152 77.096 428.64 77.608C425.184 80.36 421.472 82.44 417.504 83.848C413.6 85.256 409.472 85.96 405.12 85.96ZM513.729 83.752C512.833 84.648 511.617 85.064 510.081 85C508.545 85 507.329 84.488 506.433 83.464L474.945 46.792L504.321 11.656C505.217 10.568 506.369 10.024 507.777 10.024C509.249 9.96 510.433 10.44 511.329 11.464C512.225 12.488 512.641 13.576 512.577 14.728C512.577 15.816 512.129 16.872 511.233 17.896L486.945 46.12L513.729 77.224C514.625 78.248 515.105 79.336 515.169 80.488C515.297 81.576 514.817 82.664 513.729 83.752ZM463.617 85C462.209 85 461.025 84.52 460.065 83.56C459.105 82.6 458.625 81.416 458.625 80.008V15.016C458.625 13.544 459.105 12.36 460.065 11.464C461.025 10.504 462.209 10.024 463.617 10.024C465.089 10.024 466.273 10.504 467.169 11.464C468.129 12.36 468.609 13.544 468.609 15.016V42.568H484.353V51.4H468.609V80.008C468.609 81.416 468.129 82.6 467.169 83.56C466.273 84.52 465.089 85 463.617 85ZM538.348 85C536.556 85 535.18 84.232 534.22 82.696C533.26 81.16 533.164 79.528 533.932 77.8L560.908 13.384C561.868 11.144 563.436 10.024 565.612 10.024C567.916 10.024 569.484 11.144 570.316 13.384L597.388 77.992C598.092 79.784 597.964 81.416 597.004 82.888C596.108 84.296 594.732 85 592.876 85C591.916 85 590.988 84.744 590.092 84.232C589.26 83.656 588.652 82.888 588.268 81.928L564.46 22.792H567.148L542.956 81.928C542.508 82.952 541.836 83.72 540.94 84.232C540.108 84.744 539.244 85 538.348 85ZM543.436 68.488L547.276 60.232H584.908L588.748 68.488H543.436Z" fill="white"/>
<path d="M26.04 83.56L23.9187 85.6813L26.04 83.56ZM26.04 11.464L28.087 13.6572L28.1248 13.6219L28.1613 13.5853L26.04 11.464ZM63.96 12.616L62.5563 15.2674L62.5872 15.2837L62.6184 15.2993L63.96 12.616ZM71.736 19.624L69.1829 21.1993L69.1949 21.2188L69.2072 21.2381L71.736 19.624ZM72.024 38.536L69.5375 36.8576L69.5326 36.8647L69.5279 36.8719L72.024 38.536ZM65.112 44.488L63.7704 41.8047L56.4364 45.4717L64.4052 47.4035L65.112 44.488ZM75.288 50.536L77.5726 48.5916L75.288 50.536ZM75.96 74.056L73.4133 72.4703L73.4024 72.4878L73.3918 72.5054L75.96 74.056ZM67.32 82.12L68.6983 84.7847L68.7163 84.7753L68.7341 84.7658L67.32 82.12ZM34.584 75.784H31.584V78.784H34.584V75.784ZM62.328 74.248L63.5753 76.9764L62.328 74.248ZM67.608 69.736L70.1289 71.3624H70.1289L67.608 69.736ZM67.608 55.528L70.0492 53.7843L70.0492 53.7843L67.608 55.528ZM62.328 51.496L61.1462 54.2534L61.1799 54.2678L61.2138 54.2814L62.328 51.496ZM34.584 50.056V47.056H31.584V50.056H34.584ZM34.584 40.84H31.584V43.84H34.584V40.84ZM61.464 38.152L59.6537 35.7598L59.6378 35.7718L59.6222 35.7839L61.464 38.152ZM61.464 21.928L59.6222 24.2961L59.6585 24.3243L59.6956 24.3514L61.464 21.928ZM34.584 19.24V16.24H31.584V19.24H34.584ZM29.592 82C28.9467 82 28.5358 81.8132 28.1613 81.4387L23.9187 85.6813C25.4642 87.2268 27.4213 88 29.592 88V82ZM28.1613 81.4387C27.7868 81.0642 27.6 80.6533 27.6 80.008H21.6C21.6 82.1787 22.3732 84.1358 23.9187 85.6813L28.1613 81.4387ZM27.6 80.008V15.016H21.6V80.008H27.6ZM27.6 15.016C27.6 14.2644 27.8116 13.9142 28.087 13.6572L23.993 9.27083C22.3484 10.8058 21.6 12.8236 21.6 15.016H27.6ZM28.1613 13.5853C28.5358 13.2108 28.9467 13.024 29.592 13.024V7.024C27.4213 7.024 25.4642 7.79719 23.9187 9.34268L28.1613 13.5853ZM29.592 13.024H52.536V7.024H29.592V13.024ZM52.536 13.024C56.4859 13.024 59.7958 13.8059 62.5563 15.2674L65.3637 9.96463C61.5962 7.97008 57.2901 7.024 52.536 7.024V13.024ZM62.6184 15.2993C65.4749 16.7275 67.6356 18.6916 69.1829 21.1993L74.2891 18.0487C72.1244 14.5404 69.1011 11.8324 65.3016 9.93272L62.6184 15.2993ZM69.2072 21.2381C70.7908 23.719 71.616 26.6041 71.616 29.992H77.616C77.616 25.5719 76.5212 21.545 74.2648 18.0099L69.2072 21.2381ZM71.616 29.992C71.616 32.5396 70.9254 34.8014 69.5375 36.8576L74.5106 40.2144C76.5786 37.1506 77.616 33.7164 77.616 29.992H71.616ZM69.5279 36.8719C68.1811 38.8921 66.294 40.5429 63.7704 41.8047L66.4536 47.1713C69.818 45.4891 72.5389 43.1719 74.5202 40.2001L69.5279 36.8719ZM64.4052 47.4035C68.0789 48.2941 70.895 50.0029 73.0034 52.4804L77.5726 48.5916C74.5611 45.0531 70.5931 42.7299 65.8188 41.5724L64.4052 47.4035ZM73.0034 52.4804C75.0017 54.8284 76.128 58.0216 76.128 62.344H82.128C82.128 56.9384 80.6943 52.2596 77.5726 48.5916L73.0034 52.4804ZM76.128 62.344C76.128 66.2604 75.1984 69.6033 73.4133 72.4703L78.5067 75.6417C80.9456 71.7247 82.128 67.2596 82.128 62.344H76.128ZM73.3918 72.5054C71.6404 75.4061 69.1725 77.7283 65.9059 79.4742L68.7341 84.7658C72.8916 82.5437 76.1836 79.4899 78.5282 75.6066L73.3918 72.5054ZM65.9417 79.4553C62.7151 81.1243 58.944 82 54.552 82V88C59.76 88 64.5009 86.9557 68.6983 84.7847L65.9417 79.4553ZM54.552 82H29.592V88H54.552V82ZM34.584 78.784H54.552V72.784H34.584V78.784ZM54.552 78.784C57.8436 78.784 60.8749 78.2109 63.5753 76.9764L61.0807 71.5196C59.3011 72.3331 57.1484 72.784 54.552 72.784V78.784ZM63.5753 76.9764C66.3127 75.725 68.5245 73.8492 70.1289 71.3624L65.0871 68.1096C64.1315 69.5908 62.8233 70.723 61.0807 71.5196L63.5753 76.9764ZM70.1289 71.3624C71.7908 68.7865 72.528 65.7226 72.528 62.344H66.528C66.528 64.8534 65.9852 66.7175 65.0871 68.1096L70.1289 71.3624ZM72.528 62.344C72.528 59.1243 71.7746 56.1998 70.0492 53.7843L65.1668 57.2717C66.0014 58.4402 66.528 60.0597 66.528 62.344H72.528ZM70.0492 53.7843C68.404 51.481 66.1622 49.7986 63.4422 48.7106L61.2138 54.2814C62.9738 54.9854 64.252 55.991 65.1668 57.2717L70.0492 53.7843ZM63.5098 48.7386C60.8272 47.5889 57.8196 47.056 54.552 47.056V53.056C57.1724 53.056 59.3488 53.4831 61.1462 54.2534L63.5098 48.7386ZM54.552 47.056H34.584V53.056H54.552V47.056ZM31.584 50.056V75.784H37.584V50.056H31.584ZM34.584 43.84H52.536V37.84H34.584V43.84ZM52.536 43.84C56.6812 43.84 60.3552 42.815 63.3058 40.5201L59.6222 35.7839C57.9648 37.073 55.6868 37.84 52.536 37.84V43.84ZM63.2743 40.5442C66.5637 38.0549 68.016 34.3406 68.016 29.992H62.016C62.016 32.9394 61.1003 34.6651 59.6537 35.7598L63.2743 40.5442ZM68.016 29.992C68.016 25.6473 66.5638 21.9356 63.2324 19.5046L59.6956 24.3514C61.1002 25.3764 62.016 27.0407 62.016 29.992H68.016ZM63.3058 19.5599C60.3552 17.265 56.6812 16.24 52.536 16.24V22.24C55.6868 22.24 57.9648 23.007 59.6222 24.2961L63.3058 19.5599ZM52.536 16.24H34.584V22.24H52.536V16.24ZM31.584 19.24V40.84H37.584V19.24H31.584ZM107.895 83.56L105.774 85.6813L107.895 83.56ZM107.895 11.272L109.86 13.5391V13.5391L107.895 11.272ZM114.999 11.272L112.958 13.4704L112.995 13.5054L113.034 13.5391L114.999 11.272ZM116.439 38.92H113.439V41.92H116.439V38.92ZM145.335 41.8L143.957 44.4646V44.4647L145.335 41.8ZM153.975 49.768L151.407 51.3186L151.424 51.3472L151.442 51.3755L153.975 49.768ZM153.975 73.672L151.39 72.1489L151.386 72.1561L151.382 72.1633L153.975 73.672ZM145.335 82.024L146.749 84.6698L146.767 84.6604L146.784 84.6507L145.335 82.024ZM116.439 75.784H113.439V78.784H116.439V75.784ZM140.343 74.152L139.032 71.4535L140.343 74.152ZM145.623 69.352L148.189 70.9069L148.199 70.89L148.209 70.8731L145.623 69.352ZM145.623 53.608L143.079 55.198L143.09 55.2163L143.102 55.2344L145.623 53.608ZM140.343 49.096L139.096 51.8244L139.128 51.8393L139.161 51.8534L140.343 49.096ZM116.439 47.56V44.56H113.439V47.56H116.439ZM169.815 11.464L171.862 13.6572L171.9 13.6219L171.936 13.5853L169.815 11.464ZM176.823 11.464L174.63 13.511L174.7 13.5866L174.776 13.6572L176.823 11.464ZM176.823 83.56L174.702 81.4387L174.665 81.4752L174.63 81.513L176.823 83.56ZM111.447 82C110.802 82 110.391 81.8132 110.016 81.4387L105.774 85.6813C107.319 87.2268 109.276 88 111.447 88V82ZM110.016 81.4387C109.642 81.0642 109.455 80.6533 109.455 80.008H103.455C103.455 82.1787 104.228 84.1358 105.774 85.6813L110.016 81.4387ZM109.455 80.008V14.536H103.455V80.008H109.455ZM109.455 14.536C109.455 14.0047 109.599 13.7647 109.86 13.5391L105.93 9.00493C104.271 10.4433 103.455 12.3793 103.455 14.536H109.455ZM109.86 13.5391C110.214 13.232 110.677 13.024 111.447 13.024V7.024C109.401 7.024 107.496 7.64801 105.93 9.00493L109.86 13.5391ZM111.447 13.024C112.325 13.024 112.726 13.2549 112.958 13.4704L117.04 9.07362C115.48 7.62511 113.513 7.024 111.447 7.024V13.024ZM113.034 13.5391C113.295 13.7647 113.439 14.0047 113.439 14.536H119.439C119.439 12.3793 118.623 10.4433 116.964 9.00493L113.034 13.5391ZM113.439 14.536V38.92H119.439V14.536H113.439ZM116.439 41.92H132.567V35.92H116.439V41.92ZM132.567 41.92C136.959 41.92 140.73 42.7957 143.957 44.4646L146.713 39.1353C142.516 36.9643 137.775 35.92 132.567 35.92V41.92ZM143.957 44.4647C147.205 46.1448 149.661 48.4271 151.407 51.3186L156.543 48.2174C154.193 44.3249 150.889 41.2952 146.713 39.1353L143.957 44.4647ZM151.442 51.3755C153.213 54.1665 154.143 57.4666 154.143 61.384H160.143C160.143 56.4693 158.961 52.0255 156.508 48.1605L151.442 51.3755ZM154.143 61.384C154.143 65.5156 153.202 69.0749 151.39 72.1489L156.56 75.1951C158.972 71.1011 160.143 66.4684 160.143 61.384H154.143ZM151.382 72.1633C149.618 75.1943 147.143 77.6003 143.886 79.3973L146.784 84.6507C150.951 82.3517 154.235 79.1898 156.568 75.1807L151.382 72.1633ZM143.921 79.3782C140.702 81.0988 136.944 82 132.567 82V88C137.79 88 142.544 86.9172 146.749 84.6698L143.921 79.3782ZM132.567 82H111.447V88H132.567V82ZM116.439 78.784H132.567V72.784H116.439V78.784ZM132.567 78.784C135.883 78.784 138.937 78.1699 141.654 76.8505L139.032 71.4535C137.269 72.3101 135.139 72.784 132.567 72.784V78.784ZM141.654 76.8505C144.409 75.5123 146.606 73.5174 148.189 70.9069L143.057 67.7971C142.079 69.4106 140.757 70.6157 139.032 71.4535L141.654 76.8505ZM148.209 70.8731C149.818 68.1366 150.543 64.9264 150.543 61.384H144.543C144.543 64.1136 143.988 66.2154 143.037 67.8309L148.209 70.8731ZM150.543 61.384C150.543 57.8062 149.829 54.5942 148.144 51.9816L143.102 55.2344C143.977 56.5898 144.543 58.5618 144.543 61.384H150.543ZM148.167 52.018C146.559 49.446 144.322 47.5373 141.525 46.3386L139.161 51.8534C140.844 52.5747 142.127 53.674 143.079 55.198L148.167 52.018ZM141.59 46.3676C138.89 45.1331 135.859 44.56 132.567 44.56V50.56C135.163 50.56 137.316 51.0109 139.096 51.8244L141.59 46.3676ZM132.567 44.56H116.439V50.56H132.567V44.56ZM113.439 47.56V75.784H119.439V47.56H113.439ZM173.367 82C172.722 82 172.311 81.8132 171.936 81.4387L167.694 85.6813C169.239 87.2268 171.196 88 173.367 88V82ZM171.936 81.4387C171.562 81.0642 171.375 80.6533 171.375 80.008H165.375C165.375 82.1787 166.148 84.1358 167.694 85.6813L171.936 81.4387ZM171.375 80.008V15.016H165.375V80.008H171.375ZM171.375 15.016C171.375 14.2644 171.587 13.9142 171.862 13.6572L167.768 9.27083C166.123 10.8058 165.375 12.8236 165.375 15.016H171.375ZM171.936 13.5853C172.311 13.2108 172.722 13.024 173.367 13.024V7.024C171.196 7.024 169.239 7.79719 167.694 9.34268L171.936 13.5853ZM173.367 13.024C174.011 13.024 174.345 13.2063 174.63 13.511L179.016 9.41704C177.509 7.8017 175.539 7.024 173.367 7.024V13.024ZM174.776 13.6572C175.051 13.9142 175.263 14.2644 175.263 15.016H181.263C181.263 12.8236 180.515 10.8058 178.87 9.27083L174.776 13.6572ZM175.263 15.016V80.008H181.263V15.016H175.263ZM175.263 80.008C175.263 80.6533 175.076 81.0642 174.702 81.4387L178.944 85.6813C180.49 84.1358 181.263 82.1787 181.263 80.008H175.263ZM174.63 81.513C174.345 81.8177 174.011 82 173.367 82V88C175.539 88 177.509 87.2223 179.016 85.607L174.63 81.513ZM211.406 83.56L209.285 85.6813L211.406 83.56ZM211.406 11.464L213.453 13.6572L213.491 13.6219L213.528 13.5853L211.406 11.464ZM249.326 12.616L247.923 15.2674L247.953 15.2837L247.985 15.2993L249.326 12.616ZM257.102 19.624L254.549 21.1993L254.561 21.2188L254.573 21.2381L257.102 19.624ZM257.39 38.536L254.904 36.8576L254.899 36.8647L254.894 36.8719L257.39 38.536ZM250.478 44.488L249.137 41.8047L241.803 45.4717L249.771 47.4035L250.478 44.488ZM260.654 50.536L262.939 48.5916L260.654 50.536ZM261.326 74.056L258.78 72.4703L258.769 72.4878L258.758 72.5054L261.326 74.056ZM252.686 82.12L254.065 84.7847L254.083 84.7753L254.1 84.7658L252.686 82.12ZM219.95 75.784H216.95V78.784H219.95V75.784ZM247.694 74.248L248.942 76.9764L247.694 74.248ZM252.974 69.736L255.495 71.3624L252.974 69.736ZM252.974 55.528L255.415 53.7843V53.7843L252.974 55.528ZM247.694 51.496L246.512 54.2534L246.546 54.2678L246.58 54.2814L247.694 51.496ZM219.95 50.056V47.056H216.95V50.056H219.95ZM219.95 40.84H216.95V43.84H219.95V40.84ZM246.83 38.152L245.02 35.7598L245.004 35.7718L244.988 35.7839L246.83 38.152ZM246.83 21.928L244.988 24.2961L245.025 24.3243L245.062 24.3514L246.83 21.928ZM219.95 19.24V16.24H216.95V19.24H219.95ZM214.958 82C214.313 82 213.902 81.8132 213.528 81.4387L209.285 85.6813C210.83 87.2268 212.788 88 214.958 88V82ZM213.528 81.4387C213.153 81.0642 212.966 80.6533 212.966 80.008H206.966C206.966 82.1787 207.739 84.1358 209.285 85.6813L213.528 81.4387ZM212.966 80.008V15.016H206.966V80.008H212.966ZM212.966 15.016C212.966 14.2644 213.178 13.9142 213.453 13.6572L209.359 9.27083C207.715 10.8058 206.966 12.8236 206.966 15.016H212.966ZM213.528 13.5853C213.902 13.2108 214.313 13.024 214.958 13.024V7.024C212.788 7.024 210.83 7.79719 209.285 9.34268L213.528 13.5853ZM214.958 13.024H237.902V7.024H214.958V13.024ZM237.902 13.024C241.852 13.024 245.162 13.8059 247.923 15.2674L250.73 9.96463C246.962 7.97008 242.656 7.024 237.902 7.024V13.024ZM247.985 15.2993C250.841 16.7275 253.002 18.6916 254.549 21.1993L259.655 18.0487C257.491 14.5404 254.467 11.8324 250.668 9.93272L247.985 15.2993ZM254.573 21.2381C256.157 23.719 256.982 26.6041 256.982 29.992H262.982C262.982 25.5719 261.887 21.545 259.631 18.0099L254.573 21.2381ZM256.982 29.992C256.982 32.5396 256.292 34.8014 254.904 36.8576L259.877 40.2144C261.945 37.1506 262.982 33.7164 262.982 29.992H256.982ZM254.894 36.8719C253.547 38.8921 251.66 40.5429 249.137 41.8047L251.82 47.1713C255.184 45.4891 257.905 43.1719 259.886 40.2001L254.894 36.8719ZM249.771 47.4035C253.445 48.2941 256.261 50.0029 258.37 52.4804L262.939 48.5916C259.927 45.0531 255.959 42.7299 251.185 41.5724L249.771 47.4035ZM258.37 52.4804C260.368 54.8284 261.494 58.0216 261.494 62.344H267.494C267.494 56.9384 266.061 52.2596 262.939 48.5916L258.37 52.4804ZM261.494 62.344C261.494 66.2604 260.565 69.6033 258.78 72.4703L263.873 75.6417C266.312 71.7247 267.494 67.2596 267.494 62.344H261.494ZM258.758 72.5054C257.007 75.4061 254.539 77.7283 251.272 79.4742L254.1 84.7658C258.258 82.5437 261.55 79.4899 263.894 75.6066L258.758 72.5054ZM251.308 79.4553C248.081 81.1243 244.31 82 239.918 82V88C245.126 88 249.867 86.9557 254.065 84.7847L251.308 79.4553ZM239.918 82H214.958V88H239.918V82ZM219.95 78.784H239.918V72.784H219.95V78.784ZM239.918 78.784C243.21 78.784 246.241 78.2109 248.942 76.9764L246.447 71.5196C244.667 72.3331 242.515 72.784 239.918 72.784V78.784ZM248.942 76.9764C251.679 75.725 253.891 73.8492 255.495 71.3624L250.453 68.1096C249.498 69.5908 248.19 70.723 246.447 71.5196L248.942 76.9764ZM255.495 71.3624C257.157 68.7865 257.894 65.7226 257.894 62.344H251.894C251.894 64.8534 251.351 66.7175 250.453 68.1096L255.495 71.3624ZM257.894 62.344C257.894 59.1243 257.141 56.1998 255.415 53.7843L250.533 57.2717C251.368 58.4402 251.894 60.0597 251.894 62.344H257.894ZM255.415 53.7843C253.77 51.481 251.528 49.7986 248.808 48.7106L246.58 54.2814C248.34 54.9854 249.618 55.991 250.533 57.2717L255.415 53.7843ZM248.876 48.7386C246.193 47.5889 243.186 47.056 239.918 47.056V53.056C242.539 53.056 244.715 53.4831 246.512 54.2534L248.876 48.7386ZM239.918 47.056H219.95V53.056H239.918V47.056ZM216.95 50.056V75.784H222.95V50.056H216.95ZM219.95 43.84H237.902V37.84H219.95V43.84ZM237.902 43.84C242.047 43.84 245.721 42.815 248.672 40.5201L244.988 35.7839C243.331 37.073 241.053 37.84 237.902 37.84V43.84ZM248.641 40.5442C251.93 38.0549 253.382 34.3406 253.382 29.992H247.382C247.382 32.9394 246.466 34.6651 245.02 35.7598L248.641 40.5442ZM253.382 29.992C253.382 25.6473 251.93 21.9356 248.599 19.5046L245.062 24.3514C246.466 25.3764 247.382 27.0407 247.382 29.992H253.382ZM248.672 19.5599C245.721 17.265 242.047 16.24 237.902 16.24V22.24C241.053 22.24 243.331 23.007 244.988 24.2961L248.672 19.5599ZM237.902 16.24H219.95V22.24H237.902V16.24ZM216.95 19.24V40.84H222.95V19.24H216.95ZM293.261 83.56L291.14 85.6813L293.261 83.56ZM293.261 11.464L295.308 13.6572L295.346 13.6219L295.383 13.5853L293.261 11.464ZM343.757 11.368L341.636 13.4893L341.675 13.5286L341.716 13.5664L343.757 11.368ZM343.757 17.992L345.799 20.1904V20.1904L343.757 17.992ZM301.805 19.24V16.24H298.805V19.24H301.805ZM301.805 42.568H298.805V45.568H301.805V42.568ZM332.909 43.912L330.788 46.0333L330.827 46.0726L330.868 46.1104L332.909 43.912ZM332.909 50.536L334.951 52.7344L334.991 52.6966L335.031 52.6573L332.909 50.536ZM301.805 51.784V48.784H298.805V51.784H301.805ZM301.805 75.784H298.805V78.784H301.805V75.784ZM343.757 77.032L345.799 74.8336L343.757 77.032ZM343.757 83.752L345.799 85.9504L345.839 85.9126L345.879 85.8733L343.757 83.752ZM296.813 82C296.168 82 295.757 81.8132 295.383 81.4387L291.14 85.6813C292.685 87.2268 294.643 88 296.813 88V82ZM295.383 81.4387C295.008 81.0642 294.821 80.6533 294.821 80.008H288.821C288.821 82.1787 289.594 84.1358 291.14 85.6813L295.383 81.4387ZM294.821 80.008V15.016H288.821V80.008H294.821ZM294.821 15.016C294.821 14.2644 295.033 13.9142 295.308 13.6572L291.214 9.27083C289.57 10.8058 288.821 12.8236 288.821 15.016H294.821ZM295.383 13.5853C295.757 13.2108 296.168 13.024 296.813 13.024V7.024C294.643 7.024 292.685 7.79719 291.14 9.34268L295.383 13.5853ZM296.813 13.024H340.205V7.024H296.813V13.024ZM340.205 13.024C341.021 13.024 341.394 13.2472 341.636 13.4893L345.879 9.24668C344.329 7.69682 342.334 7.024 340.205 7.024V13.024ZM341.716 13.5664C341.906 13.7428 342.101 14.0155 342.101 14.728H348.101C348.101 12.6245 347.401 10.6572 345.799 9.16962L341.716 13.5664ZM342.101 14.728C342.101 15.3298 341.936 15.589 341.716 15.7936L345.799 20.1904C347.37 18.731 348.101 16.8142 348.101 14.728H342.101ZM341.716 15.7936C341.484 16.0091 341.083 16.24 340.205 16.24V22.24C342.271 22.24 344.239 21.6389 345.799 20.1904L341.716 15.7936ZM340.205 16.24H301.805V22.24H340.205V16.24ZM298.805 19.24V42.568H304.805V19.24H298.805ZM301.805 45.568H329.357V39.568H301.805V45.568ZM329.357 45.568C330.173 45.568 330.546 45.7912 330.788 46.0333L335.031 41.7907C333.481 40.2408 331.486 39.568 329.357 39.568V45.568ZM330.868 46.1104C331.088 46.315 331.253 46.5742 331.253 47.176H337.253C337.253 45.0898 336.522 43.173 334.951 41.7136L330.868 46.1104ZM331.253 47.176C331.253 47.7779 331.085 48.1181 330.788 48.4147L335.031 52.6573C336.526 51.1619 337.253 49.2621 337.253 47.176H331.253ZM330.868 48.3376C330.636 48.5531 330.235 48.784 329.357 48.784V54.784C331.423 54.784 333.391 54.1829 334.951 52.7344L330.868 48.3376ZM329.357 48.784H301.805V54.784H329.357V48.784ZM298.805 51.784V75.784H304.805V51.784H298.805ZM301.805 78.784H340.205V72.784H301.805V78.784ZM340.205 78.784C341.083 78.784 341.484 79.0149 341.716 79.2304L345.799 74.8336C344.239 73.3851 342.271 72.784 340.205 72.784V78.784ZM341.716 79.2304C341.936 79.435 342.101 79.6942 342.101 80.296H348.101C348.101 78.2098 347.37 76.293 345.799 74.8336L341.716 79.2304ZM342.101 80.296C342.101 81.0052 341.904 81.3623 341.636 81.6307L345.879 85.8733C347.402 84.3497 348.101 82.4028 348.101 80.296H342.101ZM341.716 81.5536C341.484 81.7691 341.083 82 340.205 82V88C342.271 88 344.239 87.3989 345.799 85.9504L341.716 81.5536ZM340.205 82H296.813V88H340.205V82ZM390.528 83.08L389.313 85.8231L389.337 85.8334L389.36 85.8434L390.528 83.08ZM378.72 74.92L376.54 76.981L376.559 77.0014L376.579 77.0214L378.72 74.92ZM370.848 62.632L368.06 63.7396L368.066 63.756L368.073 63.7723L370.848 62.632ZM370.848 32.488L368.073 31.3477L368.069 31.3574L368.065 31.3672L370.848 32.488ZM378.72 20.296L376.56 18.2143L376.559 18.2151L378.72 20.296ZM390.528 12.04L389.313 9.29695V9.29695L390.528 12.04ZM417.792 10.984L416.767 13.8034L416.775 13.8063L416.783 13.8092L417.792 10.984ZM428.544 17.32L426.64 19.6382L426.691 19.6802L426.744 19.72L428.544 17.32ZM429.696 18.568L427.091 20.0564L427.222 20.2857L427.391 20.4886L429.696 18.568ZM430.272 19.816L427.302 20.2403L427.34 20.5081L427.426 20.7647L430.272 19.816ZM429.12 24.328L431.155 26.5324L431.161 26.5264L429.12 24.328ZM426.048 25.672L426.206 28.6679L426.284 28.6637L426.362 28.6555L426.048 25.672ZM422.496 24.424L420.534 26.6931L420.593 26.7441L420.654 26.7921L422.496 24.424ZM415.104 19.72L413.905 22.4701L413.918 22.4756L413.931 22.481L415.104 19.72ZM385.632 26.728L383.46 24.659L383.447 24.6728L383.434 24.6866L385.632 26.728ZM379.776 36.136L382.561 37.2502L382.565 37.2416L382.568 37.233L379.776 36.136ZM379.776 58.984L376.984 60.081L376.987 60.0896L376.991 60.0982L379.776 58.984ZM385.632 68.296L383.434 70.3373L383.447 70.3512L383.46 70.365L385.632 68.296ZM394.464 74.632L393.207 77.3559L393.229 77.3659L393.25 77.3756L394.464 74.632ZM414.336 75.208L415.396 78.0144L415.413 78.0082L415.429 78.0017L414.336 75.208ZM422.784 70.504L421.028 68.072L421.015 68.0811L421.002 68.0903L422.784 70.504ZM426.144 69.448L425.793 72.4275L425.885 72.4383L425.978 72.4434L426.144 69.448ZM429.024 70.792L426.82 72.8268L426.86 72.8709L426.903 72.9133L429.024 70.792ZM429.792 75.976L432.533 77.1944L432.556 77.1427L432.577 77.0902L429.792 75.976ZM428.64 77.608L430.509 79.9548L430.641 79.8492L430.761 79.7293L428.64 77.608ZM417.504 83.848L416.501 81.0207L416.493 81.0233L416.486 81.0259L417.504 83.848ZM405.12 82.96C400.316 82.96 395.851 82.0726 391.696 80.3166L389.36 85.8434C394.292 87.9274 399.556 88.96 405.12 88.96V82.96ZM391.743 80.337C387.605 78.5046 383.984 76.0009 380.861 72.8186L376.579 77.0214C380.24 80.7511 384.491 83.6874 389.313 85.8231L391.743 80.337ZM380.9 72.859C377.836 69.6181 375.409 65.8376 373.623 61.4917L368.073 63.7723C370.127 68.7704 372.948 73.1819 376.54 76.981L380.9 72.859ZM373.636 61.5244C371.931 57.2329 371.064 52.5561 371.064 47.464H365.064C365.064 53.2519 366.053 58.6871 368.06 63.7396L373.636 61.5244ZM371.064 47.464C371.064 42.4403 371.93 37.8322 373.631 33.6088L368.065 31.3672C366.054 36.3598 365.064 41.7357 365.064 47.464H371.064ZM373.623 33.6283C375.407 29.287 377.829 25.5466 380.881 22.3769L376.559 18.2151C372.955 21.9573 370.129 26.345 368.073 31.3477L373.623 33.6283ZM380.88 22.3777C384.002 19.1379 387.617 16.6102 391.743 14.783L389.313 9.29695C384.479 11.4378 380.222 14.4141 376.56 18.2143L380.88 22.3777ZM391.743 14.783C395.814 12.9803 400.26 12.064 405.12 12.064V6.064C399.484 6.064 394.202 7.13171 389.313 9.29695L391.743 14.783ZM405.12 12.064C409.802 12.064 413.661 12.6739 416.767 13.8034L418.817 8.16462C414.883 6.73407 410.293 6.064 405.12 6.064V12.064ZM416.783 13.8092C419.979 14.9507 423.266 16.8671 426.64 19.6382L430.448 15.0018C426.654 11.8849 422.773 9.57725 418.801 8.15877L416.783 13.8092ZM426.744 19.72C427.005 19.9156 427.081 20.0385 427.091 20.0564L432.301 17.0796C431.799 16.2015 431.107 15.4924 430.344 14.92L426.744 19.72ZM427.391 20.4886C427.398 20.4969 427.38 20.4763 427.356 20.4252C427.332 20.3723 427.312 20.308 427.302 20.2403L433.242 19.3917C433.091 18.3364 432.638 17.4128 432.001 16.6474L427.391 20.4886ZM427.426 20.7647C427.42 20.7462 427.431 20.7729 427.442 20.8605C427.454 20.9472 427.464 21.0766 427.464 21.256H433.464C433.464 20.4823 433.381 19.6566 433.118 18.8673L427.426 20.7647ZM427.464 21.256C427.464 21.6326 427.367 21.8617 427.079 22.1296L431.161 26.5264C432.665 25.1303 433.464 23.3114 433.464 21.256H427.464ZM427.085 22.1236C426.767 22.4177 426.362 22.6224 425.734 22.6885L426.362 28.6555C428.166 28.4656 429.809 27.7743 431.155 26.5324L427.085 22.1236ZM425.89 22.6761C425.532 22.695 425.039 22.6013 424.338 22.0559L420.654 26.7921C422.257 28.0387 424.132 28.777 426.206 28.6679L425.89 22.6761ZM424.458 22.1549C421.884 19.9282 419.158 18.1832 416.277 16.959L413.931 22.481C416.17 23.4328 418.372 24.8238 420.534 26.6931L424.458 22.1549ZM416.303 16.9699C413.283 15.6535 409.496 15.088 405.12 15.088V21.088C409.064 21.088 411.933 21.6105 413.905 22.4701L416.303 16.9699ZM405.12 15.088C400.923 15.088 396.941 15.9446 393.207 17.6681L395.721 23.1159C398.643 21.7674 401.765 21.088 405.12 21.088V15.088ZM393.207 17.6681C389.531 19.3648 386.277 21.7005 383.46 24.659L387.804 28.797C390.107 26.3795 392.741 24.4912 395.721 23.1159L393.207 17.6681ZM383.434 24.6866C380.67 27.6631 378.522 31.1235 376.984 35.039L382.568 37.233C383.846 33.9805 385.602 31.1689 387.83 28.7693L383.434 24.6866ZM376.991 35.0218C375.432 38.9183 374.664 43.0749 374.664 47.464H380.664C380.664 43.7891 381.304 40.3937 382.561 37.2502L376.991 35.0218ZM374.664 47.464C374.664 51.9113 375.43 56.1257 376.984 60.081L382.568 57.887C381.306 54.6743 380.664 51.2087 380.664 47.464H374.664ZM376.991 60.0982C378.531 63.949 380.678 67.3699 383.434 70.3373L387.83 66.2546C385.594 63.8461 383.837 61.059 382.561 57.8698L376.991 60.0982ZM383.46 70.365C386.277 73.3235 389.531 75.6592 393.207 77.3559L395.721 71.9081C392.741 70.5328 390.107 68.6445 387.804 66.227L383.46 70.365ZM393.25 77.3756C396.975 79.0231 400.942 79.84 405.12 79.84V73.84C401.746 73.84 398.609 73.1849 395.677 71.8884L393.25 77.3756ZM405.12 79.84C408.724 79.84 412.157 79.238 415.396 78.0144L413.276 72.4016C410.755 73.354 408.044 73.84 405.12 73.84V79.84ZM415.429 78.0017C418.632 76.7485 421.678 75.0492 424.566 72.9177L421.002 68.0903C418.514 69.9268 415.928 71.3635 413.243 72.4143L415.429 78.0017ZM424.54 72.936C425.27 72.4093 425.652 72.4108 425.793 72.4275L426.495 66.4686C424.46 66.2292 422.602 66.9347 421.028 68.072L424.54 72.936ZM425.978 72.4434C426.368 72.4651 426.591 72.5797 426.82 72.8268L431.228 68.7572C429.921 67.3403 428.224 66.5589 426.31 66.4526L425.978 72.4434ZM426.903 72.9133C426.955 72.9658 427.176 73.1976 427.176 74.056H433.176C433.176 72.0984 432.629 70.1542 431.145 68.6707L426.903 72.9133ZM427.176 74.056C427.176 74.2858 427.132 74.5487 427.007 74.8618L432.577 77.0902C432.964 76.1233 433.176 75.1062 433.176 74.056H427.176ZM427.051 74.7576C426.965 74.951 426.809 75.1968 426.519 75.4867L430.761 79.7293C431.495 78.9952 432.107 78.153 432.533 77.1944L427.051 74.7576ZM426.771 75.2612C423.562 77.8165 420.14 79.7292 416.501 81.0207L418.507 86.6753C422.804 85.1508 426.806 82.9035 430.509 79.9548L426.771 75.2612ZM416.486 81.0259C412.924 82.3106 409.142 82.96 405.12 82.96V88.96C409.802 88.96 414.276 88.2014 418.522 86.6701L416.486 81.0259ZM513.729 83.752L511.608 81.6307L513.729 83.752ZM510.081 85L510.206 82.0026L510.143 82H510.081V85ZM506.433 83.464L504.157 85.4183L504.166 85.429L504.175 85.4395L506.433 83.464ZM474.945 46.792L472.643 44.8677L471.013 46.8178L472.669 48.7463L474.945 46.792ZM504.321 11.656L506.623 13.5803L506.63 13.5717L506.637 13.5631L504.321 11.656ZM507.777 10.024V13.024H507.842L507.907 13.0212L507.777 10.024ZM511.329 11.464L509.071 13.4395V13.4395L511.329 11.464ZM512.577 14.728L509.582 14.5616L509.577 14.6447V14.728H512.577ZM511.233 17.896L508.975 15.9205L508.967 15.9298L508.959 15.9392L511.233 17.896ZM486.945 46.12L484.671 44.1632L482.987 46.1206L484.672 48.0776L486.945 46.12ZM513.729 77.224L511.456 79.1816L511.463 79.1906L511.471 79.1995L513.729 77.224ZM515.169 80.488L512.174 80.6544L512.179 80.7467L512.19 80.8385L515.169 80.488ZM460.065 83.56L457.944 85.6813L460.065 83.56ZM460.065 11.464L462.112 13.6572L462.15 13.6219L462.186 13.5853L460.065 11.464ZM467.169 11.464L464.976 13.511L465.046 13.5866L465.122 13.6572L467.169 11.464ZM468.609 42.568H465.609V45.568H468.609V42.568ZM484.353 42.568H487.353V39.568H484.353V42.568ZM484.353 51.4V54.4H487.353V51.4H484.353ZM468.609 51.4V48.4H465.609V51.4H468.609ZM467.169 83.56L465.048 81.4387L465.011 81.4752L464.976 81.513L467.169 83.56ZM511.608 81.6307C511.429 81.8092 511.097 82.0397 510.206 82.0026L509.956 87.9974C512.137 88.0883 514.237 87.4868 515.85 85.8733L511.608 81.6307ZM510.081 82C509.286 82 508.94 81.7734 508.691 81.4885L504.175 85.4395C505.718 87.2026 507.804 88 510.081 88V82ZM508.709 81.5097L477.221 44.8377L472.669 48.7463L504.157 85.4183L508.709 81.5097ZM477.247 48.7163L506.623 13.5803L502.019 9.73173L472.643 44.8677L477.247 48.7163ZM506.637 13.5631C506.964 13.1663 507.267 13.024 507.777 13.024V7.024C505.471 7.024 503.47 7.96971 502.005 9.74887L506.637 13.5631ZM507.907 13.0212C508.556 12.993 508.83 13.1634 509.071 13.4395L513.587 9.48849C512.036 7.71661 509.942 6.92702 507.647 7.02683L507.907 13.0212ZM509.071 13.4395C509.55 13.9869 509.594 14.3312 509.582 14.5616L515.572 14.8944C515.688 12.8208 514.9 10.9891 513.587 9.48848L509.071 13.4395ZM509.577 14.728C509.577 14.9206 509.517 15.3014 508.975 15.9205L513.491 19.8715C514.741 18.4425 515.577 16.7113 515.577 14.728H509.577ZM508.959 15.9392L484.671 44.1632L489.219 48.0768L513.507 19.8528L508.959 15.9392ZM484.672 48.0776L511.456 79.1816L516.002 75.2664L489.218 44.1624L484.672 48.0776ZM511.471 79.1995C512.009 79.8136 512.153 80.2856 512.174 80.6544L518.164 80.3216C518.057 78.3864 517.241 76.6824 515.987 75.2485L511.471 79.1995ZM512.19 80.8385C512.186 80.8053 512.203 80.812 512.16 80.9091C512.107 81.0302 511.963 81.2756 511.608 81.6307L515.85 85.8733C517.311 84.4129 518.422 82.4659 518.148 80.1375L512.19 80.8385ZM463.617 82C462.972 82 462.561 81.8132 462.186 81.4387L457.944 85.6813C459.489 87.2268 461.446 88 463.617 88V82ZM462.186 81.4387C461.812 81.0642 461.625 80.6533 461.625 80.008H455.625C455.625 82.1787 456.398 84.1358 457.944 85.6813L462.186 81.4387ZM461.625 80.008V15.016H455.625V80.008H461.625ZM461.625 15.016C461.625 14.2644 461.837 13.9142 462.112 13.6572L458.018 9.27083C456.373 10.8058 455.625 12.8236 455.625 15.016H461.625ZM462.186 13.5853C462.561 13.2108 462.972 13.024 463.617 13.024V7.024C461.446 7.024 459.489 7.79719 457.944 9.34268L462.186 13.5853ZM463.617 13.024C464.369 13.024 464.719 13.2356 464.976 13.511L469.362 9.41704C467.827 7.7724 465.809 7.024 463.617 7.024V13.024ZM465.122 13.6572C465.397 13.9142 465.609 14.2644 465.609 15.016H471.609C471.609 12.8236 470.861 10.8058 469.216 9.27083L465.122 13.6572ZM465.609 15.016V42.568H471.609V15.016H465.609ZM468.609 45.568H484.353V39.568H468.609V45.568ZM481.353 42.568V51.4H487.353V42.568H481.353ZM484.353 48.4H468.609V54.4H484.353V48.4ZM465.609 51.4V80.008H471.609V51.4H465.609ZM465.609 80.008C465.609 80.6533 465.422 81.0642 465.048 81.4387L469.29 85.6813C470.836 84.1358 471.609 82.1787 471.609 80.008H465.609ZM464.976 81.513C464.719 81.7884 464.369 82 463.617 82V88C465.809 88 467.827 87.2516 469.362 85.607L464.976 81.513ZM534.22 82.696L531.676 84.286L534.22 82.696ZM533.932 77.8L536.673 79.0184L536.686 78.9888L536.699 78.9588L533.932 77.8ZM560.908 13.384L558.15 12.2022L558.145 12.2137L558.141 12.2252L560.908 13.384ZM570.316 13.384L567.503 14.4286L567.525 14.4864L567.549 14.5434L570.316 13.384ZM597.388 77.992L600.18 76.895L600.168 76.8637L600.155 76.8326L597.388 77.992ZM597.004 82.888L594.491 81.2492L594.482 81.2632L594.473 81.2774L597.004 82.888ZM590.092 84.232L588.384 86.6986L588.491 86.7724L588.603 86.8367L590.092 84.232ZM588.268 81.928L591.053 80.8138L591.051 80.8076L588.268 81.928ZM564.46 22.792V19.792H560.018L561.677 23.9124L564.46 22.792ZM567.148 22.792L569.924 23.9279L571.616 19.792H567.148V22.792ZM542.956 81.928L545.704 83.1305L545.719 83.0973L545.732 83.0639L542.956 81.928ZM540.94 84.232L539.451 81.6273L539.409 81.6515L539.367 81.677L540.94 84.232ZM543.436 68.488L540.716 67.2228L538.732 71.488H543.436V68.488ZM547.276 60.232V57.232H545.362L544.556 58.9668L547.276 60.232ZM584.908 60.232L587.628 58.9668L586.821 57.232H584.908V60.232ZM588.748 68.488V71.488H593.452L591.468 67.2228L588.748 68.488ZM538.348 82C537.604 82 537.183 81.7764 536.764 81.106L531.676 84.286C533.177 86.6876 535.508 88 538.348 88V82ZM536.764 81.106C536.359 80.4587 536.289 79.8834 536.673 79.0184L531.19 76.5816C530.039 79.1726 530.16 81.8613 531.676 84.286L536.764 81.106ZM536.699 78.9588L563.675 14.5428L558.141 12.2252L531.165 76.6412L536.699 78.9588ZM563.665 14.5658C563.986 13.8183 564.314 13.4717 564.547 13.3052C564.758 13.1547 565.065 13.024 565.612 13.024V7.024C563.983 7.024 562.417 7.45332 561.06 8.4228C559.725 9.37624 558.79 10.7097 558.15 12.2022L563.665 14.5658ZM565.612 13.024C566.264 13.024 566.59 13.1752 566.772 13.3052C566.963 13.4413 567.246 13.7347 567.503 14.4286L573.128 12.3394C572.554 10.7933 571.637 9.40672 570.259 8.4228C568.873 7.43277 567.264 7.024 565.612 7.024V13.024ZM567.549 14.5434L594.621 79.1514L600.155 76.8326L573.083 12.2246L567.549 14.5434ZM594.596 79.089C594.984 80.0783 594.864 80.6768 594.491 81.2492L599.517 84.5268C601.063 82.1552 601.199 79.4897 600.18 76.895L594.596 79.089ZM594.473 81.2774C594.197 81.7109 593.842 82 592.876 82V88C595.621 88 598.019 86.8811 599.535 84.4986L594.473 81.2774ZM592.876 82C592.477 82 592.058 81.9003 591.58 81.6273L588.603 86.8367C589.918 87.5877 591.355 88 592.876 88V82ZM591.799 81.7654C591.463 81.5323 591.224 81.2396 591.053 80.8138L585.482 83.0422C586.08 84.5364 587.057 85.7797 588.384 86.6986L591.799 81.7654ZM591.051 80.8076L567.243 21.6716L561.677 23.9124L585.485 83.0484L591.051 80.8076ZM564.46 25.792H567.148V19.792H564.46V25.792ZM564.371 21.6561L540.179 80.7921L545.732 83.0639L569.924 23.9279L564.371 21.6561ZM540.207 80.7255C539.995 81.2108 539.74 81.4622 539.451 81.6273L542.428 86.8367C543.931 85.9778 545.021 84.6932 545.704 83.1305L540.207 80.7255ZM539.367 81.677C538.964 81.9253 538.639 82 538.348 82V88C539.849 88 541.251 87.5627 542.512 86.787L539.367 81.677ZM546.156 69.7532L549.996 61.4972L544.556 58.9668L540.716 67.2228L546.156 69.7532ZM547.276 63.232H584.908V57.232H547.276V63.232ZM582.188 61.4972L586.028 69.7532L591.468 67.2228L587.628 58.9668L582.188 61.4972ZM588.748 65.488H543.436V71.488H588.748V65.488Z" fill="white"/>
</g>
<defs>
<filter id="filter0_d_15_168" x="24.6001" y="5.064" width="584.844" height="84.896" filterUnits="userSpaceOnUse" color-interpolation-filters="sRGB">
<feFlood flood-opacity="0" result="BackgroundImageFix"/>
<feColorMatrix in="SourceAlpha" type="matrix" values="0 0 0 0 0 0 0 0 0 0 0 0 0 0 0 0 0 0 127 0" result="hardAlpha"/>
<feOffset dx="7"/>
<feGaussianBlur stdDeviation="2"/>
<feComposite in2="hardAlpha" operator="out"/>
<feColorMatrix type="matrix" values="0 0 0 0 0 0 0 0 0 0 0 0 0 0 0 0 0 0 0.25 0"/>
<feBlend mode="darken" in2="BackgroundImageFix" result="effect1_dropShadow_15_168"/>
<feBlend mode="normal" in="SourceGraphic" in2="effect1_dropShadow_15_168" result="shape"/>
</filter>
</defs>
</svg>
