<svg xmlns="http://www.w3.org/2000/svg" xmlns:xlink="http://www.w3.org/1999/xlink" viewBox="0 0 72.34 72.99"><defs><linearGradient id="Безымянный_градиент_36" x1="23.64" y1="57.87" x2="56.58" y2="57.87" gradientUnits="userSpaceOnUse"><stop offset="0" stop-color="#f20365"/><stop offset="0.36" stop-color="#e40270"/><stop offset="1" stop-color="#c2008b"/></linearGradient><linearGradient id="Безымянный_градиент_58" x1="1" y1="49.49" x2="56.58" y2="49.49" gradientUnits="userSpaceOnUse"><stop offset="0" stop-color="#ff76dc"/><stop offset="1" stop-color="#b6058e"/></linearGradient><linearGradient id="Безымянный_градиент_3" x1="53.45" y1="30.8" x2="-7.43" y2="64.1" gradientUnits="userSpaceOnUse"><stop offset="0" stop-color="#65c8d0" stop-opacity="0"/><stop offset="0.21" stop-color="#65c8d0" stop-opacity="0.26"/><stop offset="0.49" stop-color="#65c8d0" stop-opacity="0.58"/><stop offset="0.72" stop-color="#65c8d0" stop-opacity="0.81"/><stop offset="0.9" stop-color="#65c8d0" stop-opacity="0.95"/><stop offset="1" stop-color="#65c8d0"/></linearGradient><linearGradient id="Безымянный_градиент_62" x1="-3.96" y1="44.53" x2="56.58" y2="44.53" gradientUnits="userSpaceOnUse"><stop offset="0" stop-color="#77b3e2"/><stop offset="0.13" stop-color="#6faad9"/><stop offset="0.34" stop-color="#5b92bf"/><stop offset="0.61" stop-color="#396a96"/><stop offset="0.93" stop-color="#0b335d"/><stop offset="1" stop-color="#00264f"/></linearGradient></defs><g id="Слой_2" data-name="Слой 2"><g id="Слой_1-2" data-name="Слой 1"><path d="M45.61,61.53c1.63-1,1-5.41,1.48-7.51L30.31,61.09c2.15.1,4.48.09,5.38.16,1.76.13,3.53.23,5.29.27C41.61,61.53,45,61.93,45.61,61.53Z" style="fill:url(#Безымянный_градиент_36)"/><path d="M47.14,53.78c.78-2.85,1.27-6.18,2.46-8.87,1-2.35,2.77-4.26,3.59-6.73,0-.1.05-.2.08-.29L24.92,52c.09.29.19.59.27.89.34,1.26.25,6.8.9,7.53.36.41,2.21.58,4.22.67L47.09,54C47.11,53.94,47.12,53.85,47.14,53.78Z" style="fill:url(#Безымянный_градиент_58)"/><path d="M20.82,43.72a33,33,0,0,1,3.95,7.79L53.48,37.17a16.46,16.46,0,0,0-.19-9L19.86,42.79A3.24,3.24,0,0,1,20.82,43.72Z" style="fill:url(#Безымянный_градиент_3)"/><path d="M24.92,52,53.27,37.89c.09-.28.17-.55.24-.83l-29,13.57C24.63,51.08,24.78,51.54,24.92,52Z" style="fill:url(#Безымянный_градиент_62)"/><path d="M19.58,31.2l2.39.34Z" style="fill:#999"/><path d="M19.53,31.54l-2.38-.34Z" style="fill:#999"/><path d="M52.61,31.2,55,30.86Z" style="fill:#999"/><path d="M52.66,31.54l-2.39.34Z" style="fill:#999"/><path d="M45.74,60.28v2.41a2.39,2.39,0,0,0,2.41-2.41Z" style="fill:#999"/><path d="M26.45,60.28H24a2.39,2.39,0,0,0,2.41,2.41Z" style="fill:#999"/><path d="M22.86,44.14l1.91-1.47Z" style="fill:#999"/><path d="M49.33,44.14l-1.91-1.47Z" style="fill:#999"/><rect x="28.94" y="68.17" width="14.47" height="4.82" style="fill:#7b91bb"/><polygon points="17.19 30.86 17.14 31.2 21.92 31.88 21.96 31.54 17.19 30.86" style="fill:#999"/><path d="M36.1,14.47A19.09,19.09,0,0,0,17.19,30.86l4.77.68A14.28,14.28,0,0,1,36.1,19.29Z" style="fill:#999"/><path d="M55,30.86A19.09,19.09,0,0,0,36.1,14.47v4.82A14.28,14.28,0,0,1,50.23,31.54Z" style="fill:#999"/><polygon points="55.05 31.2 55 30.86 50.23 31.54 50.27 31.88 55.05 31.2" style="fill:#999"/><path d="M51.24,45.62A19.1,19.1,0,0,0,55.05,31.2l-4.78.68A14.13,14.13,0,0,1,50,37.56a14.38,14.38,0,0,1-2.52,5.11Z" style="fill:#999"/><polygon points="43.33 52.57 43.33 60.28 48.15 60.28 48.15 52.57 43.33 52.57 43.33 52.57" style="fill:#999"/><rect x="26.45" y="57.87" width="19.29" height="4.82" style="fill:#999"/><rect x="24.04" y="52.57" width="4.82" height="7.71" style="fill:#999"/><path d="M17.14,31.2A19.1,19.1,0,0,0,21,45.62l3.81-2.95a14.38,14.38,0,0,1-2.52-5.11,14.13,14.13,0,0,1-.32-5.68l-4.78-.68Z" style="fill:#999"/><path d="M28.86,52.57c0-4-2.11-7.35-4.1-9.91l-3.81,3C22.8,48,24,50.28,24,52.57Z" style="fill:#999"/><path d="M47.43,42.66c-2,2.57-4.1,5.94-4.1,9.91h4.82c0-2.29,1.24-4.57,3.09-7Z" style="fill:#999"/><rect x="33.1" width="4.82" height="9.65" style="fill:#7b91bb"/><rect y="34.41" width="9.65" height="4.82" style="fill:#7b91bb"/><rect x="62.69" y="34.41" width="9.65" height="4.82" style="fill:#7b91bb"/><rect x="7.78" y="10.56" width="4.83" height="10.23" transform="translate(-8.1 11.8) rotate(-45)" style="fill:#7b91bb"/><rect x="55.72" y="13.26" width="10.23" height="4.83" transform="translate(6.73 47.61) rotate(-45)" style="fill:#7b91bb"/></g></g></svg>