<svg xmlns="http://www.w3.org/2000/svg" xmlns:xlink="http://www.w3.org/1999/xlink" viewBox="0 0 86.6 75.34"><defs><linearGradient id="Безымянный_градиент_36" x1="55.39" y1="69.56" x2="104.38" y2="69.56" gradientUnits="userSpaceOnUse"><stop offset="0" stop-color="#f20365"/><stop offset="0.36" stop-color="#e40270"/><stop offset="1" stop-color="#c2008b"/></linearGradient><linearGradient id="Безымянный_градиент_58" x1="21.68" y1="57.63" x2="104.55" y2="57.63" gradientUnits="userSpaceOnUse"><stop offset="0" stop-color="#ff76dc"/><stop offset="1" stop-color="#b6058e"/></linearGradient><linearGradient id="Безымянный_градиент_3" x1="99.59" y1="22.11" x2="7.98" y2="72.22" gradientUnits="userSpaceOnUse"><stop offset="0" stop-color="#65c8d0" stop-opacity="0"/><stop offset="0.21" stop-color="#65c8d0" stop-opacity="0.26"/><stop offset="0.49" stop-color="#65c8d0" stop-opacity="0.58"/><stop offset="0.72" stop-color="#65c8d0" stop-opacity="0.81"/><stop offset="0.9" stop-color="#65c8d0" stop-opacity="0.95"/><stop offset="1" stop-color="#65c8d0"/></linearGradient><linearGradient id="Безымянный_градиент_62" x1="14.34" y1="53.04" x2="104.38" y2="53.04" gradientUnits="userSpaceOnUse"><stop offset="0" stop-color="#77b3e2"/><stop offset="0.13" stop-color="#6faad9"/><stop offset="0.34" stop-color="#5b92bf"/><stop offset="0.61" stop-color="#396a96"/><stop offset="0.93" stop-color="#0b335d"/><stop offset="1" stop-color="#00264f"/></linearGradient></defs><g id="Слой_2" data-name="Слой 2"><g id="Слой_1-2" data-name="Слой 1"><path d="M67.38,71.16a35.16,35.16,0,0,0,5.74-2.73,35.1,35.1,0,0,1,3.45-3.55L55.39,74.25l4.5-.06C62.49,73.29,65.16,72,67.38,71.16Z" style="fill:url(#Безымянный_градиент_36)"/><path d="M85.43,41.58c-.07-.18-.11-.38-.17-.57L36.64,66.45c1.63,1.45,3.22,3,4.89,4.49C44.21,72,47,72.86,49.7,73.82l2,.43h3.65l21.18-9.37c5.75-5.84-9.75-3.43-7.9-6.29,2.13-6,14.58-1,16.72-10.5A22.55,22.55,0,0,0,85.43,41.58Z" style="fill:url(#Безымянный_градиент_58)"/><path d="M80.89,26.89,26.28,52.08a3,3,0,0,1,.13.86c0,.58,0,1.15-.06,1.72a34.12,34.12,0,0,1,3.28,6.25l.06.13,1,.67A55.15,55.15,0,0,1,36,65.92L85,40.2c-.49-1.84-.8-3.74-1.45-5.52C82.51,31.82,80.85,29.25,80.89,26.89Z" style="fill:url(#Безымянный_градиент_3)"/><path d="M34.3,64.45c.8.65,1.57,1.32,2.34,2L85.26,41c-.14-.46-.28-.92-.39-1.38Z" style="fill:url(#Безымянный_градиент_62)"/><path d="M69.65,60.29a3.31,3.31,0,0,1-.56-.06A21.18,21.18,0,1,1,74,54.3l9.32,0a29.67,29.67,0,0,0-6-30.34l6.67-6.63-6-6-7.29,7.24a29.43,29.43,0,0,0-15.25-4.3A29.79,29.79,0,1,0,80.25,60.32Z" style="fill:none;stroke:#999;stroke-width:3px"/><rect x="51.06" y="31.29" width="8.51" height="17.02" style="fill:none;stroke:#999;stroke-width:3px"/><rect x="46.81" y="1.5" width="17.02" height="8.51" style="fill:none;stroke:#999;stroke-width:3px"/><rect x="4.26" y="22.78" width="17.02" height="8.51" style="fill:#edf8fd"/><rect x="4.26" y="56.82" width="17.02" height="8.51" style="fill:#7b91bb"/><rect y="39.8" width="16.98" height="8.51" style="fill:#85d0f1"/></g></g></svg>