<svg xmlns="http://www.w3.org/2000/svg" xmlns:xlink="http://www.w3.org/1999/xlink" viewBox="0 0 99.2 72.34"><defs><linearGradient id="Безымянный_градиент_36" x1="11.66" y1="46.19" x2="102.53" y2="46.19" gradientUnits="userSpaceOnUse"><stop offset="0" stop-color="#f20365"/><stop offset="0.36" stop-color="#e40270"/><stop offset="1" stop-color="#c2008b"/></linearGradient><linearGradient id="Безымянный_градиент_36-2" x1="11.66" y1="66.81" x2="102.53" y2="66.81" xlink:href="#Безымянный_градиент_36"/><linearGradient id="Безымянный_градиент_36-3" x1="11.66" y1="37" x2="102.53" y2="37" xlink:href="#Безымянный_градиент_36"/><linearGradient id="Безымянный_градиент_58" x1="-50.8" y1="24.85" x2="102.53" y2="24.85" gradientUnits="userSpaceOnUse"><stop offset="0" stop-color="#ff76dc"/><stop offset="1" stop-color="#b6058e"/></linearGradient><linearGradient id="Безымянный_градиент_58-2" x1="-50.8" y1="36.66" x2="102.53" y2="36.66" xlink:href="#Безымянный_градиент_58"/><linearGradient id="Безымянный_градиент_58-3" x1="-50.8" y1="54.9" x2="102.53" y2="54.9" xlink:href="#Безымянный_градиент_58"/><linearGradient id="Безымянный_градиент_3" x1="94.46" y1="-16.86" x2="-73.51" y2="75.03" gradientUnits="userSpaceOnUse"><stop offset="0" stop-color="#65c8d0" stop-opacity="0"/><stop offset="0.21" stop-color="#65c8d0" stop-opacity="0.26"/><stop offset="0.49" stop-color="#65c8d0" stop-opacity="0.58"/><stop offset="0.72" stop-color="#65c8d0" stop-opacity="0.81"/><stop offset="0.9" stop-color="#65c8d0" stop-opacity="0.95"/><stop offset="1" stop-color="#65c8d0"/></linearGradient><linearGradient id="Безымянный_градиент_3-2" x1="99.15" y1="-8.28" x2="-68.82" y2="83.6" xlink:href="#Безымянный_градиент_3"/><linearGradient id="Безымянный_градиент_62" x1="-64.48" y1="43.74" x2="102.53" y2="43.74" gradientUnits="userSpaceOnUse"><stop offset="0" stop-color="#77b3e2"/><stop offset="0.13" stop-color="#6faad9"/><stop offset="0.34" stop-color="#5b92bf"/><stop offset="0.61" stop-color="#396a96"/><stop offset="0.93" stop-color="#0b335d"/><stop offset="1" stop-color="#00264f"/></linearGradient><linearGradient id="Безымянный_градиент_3-3" x1="98.88" y1="-8.76" x2="-69.08" y2="83.12" xlink:href="#Безымянный_градиент_3"/><linearGradient id="Безымянный_градиент_62-2" x1="-64.48" y1="41.98" x2="102.53" y2="41.98" xlink:href="#Безымянный_градиент_62"/><linearGradient id="Безымянный_градиент_62-3" x1="-64.48" y1="10.42" x2="102.53" y2="10.42" xlink:href="#Безымянный_градиент_62"/><linearGradient id="Безымянный_градиент_62-4" x1="-64.48" y1="24.06" x2="102.53" y2="24.06" xlink:href="#Безымянный_градиент_62"/><linearGradient id="Безымянный_градиент_3-4" x1="99.88" y1="-6.93" x2="-68.08" y2="84.95" xlink:href="#Безымянный_градиент_3"/><linearGradient id="Безымянный_градиент_62-5" x1="-64.48" y1="23.89" x2="102.53" y2="23.89" xlink:href="#Безымянный_градиент_62"/><linearGradient id="Безымянный_градиент_3-5" x1="100.67" y1="-5.5" x2="-67.3" y2="86.39" xlink:href="#Безымянный_градиент_3"/><linearGradient id="Безымянный_градиент_62-6" x1="-64.48" y1="9.74" x2="102.53" y2="9.74" xlink:href="#Безымянный_градиент_62"/></defs><g id="Слой_2" data-name="Слой 2"><g id="Слой_1-2" data-name="Слой 1"><path d="M49.6,6.58c-15.3,0-26.06,7.57-33.09,15.35A61.38,61.38,0,0,0,6.93,36.16h0c.52,1.07,1.08,2.11,1.65,3.15.45.79.9,1.57,1.38,2.33.24.4.5.79.75,1.19a62.37,62.37,0,0,0,5.8,7.56,46.61,46.61,0,0,0,19,13A42.31,42.31,0,0,0,49.6,65.76a41.71,41.71,0,0,0,19.08-4.48,45.63,45.63,0,0,0,8.94-6,51.56,51.56,0,0,0,5.07-4.91A60.82,60.82,0,0,0,90,40.48q1.25-2.1,2.32-4.3h0a61.42,61.42,0,0,0-9.59-14.23,49.52,49.52,0,0,0-11.2-9.33c-.51-.3-1-.6-1.56-.88-.34-.19-.69-.38-1.05-.56A41.8,41.8,0,0,0,49.6,6.58Zm5.58,14.13a16.7,16.7,0,0,1,6.12,3.83,16.38,16.38,0,0,1,0,23.25,16.6,16.6,0,0,1-23.39,0,16.38,16.38,0,0,1-4.84-11.62A17.46,17.46,0,0,1,33.23,34a16.07,16.07,0,0,1,3.14-7.65,17.54,17.54,0,0,1,1.54-1.81A16.59,16.59,0,0,1,49.6,19.73c.29,0,.57,0,.85,0a18.08,18.08,0,0,1,2.66.34A17.62,17.62,0,0,1,55.18,20.71Z" style="fill:none"/><path d="M39.93,34a9.75,9.75,0,0,0,2.66,9.14,10,10,0,0,0,14,0,9.84,9.84,0,0,0,0-13.95A9.93,9.93,0,0,0,44,28a9.45,9.45,0,0,0-1.44,1.17A9.87,9.87,0,0,0,39.93,34Z" style="fill:none"/><path d="M68.68,61.28a2.85,2.85,0,0,0,.42,0H80.71a59.22,59.22,0,0,0,6.43-6H77.62A45.63,45.63,0,0,1,68.68,61.28Z" style="fill:none"/><path d="M42.59,29.19A9.45,9.45,0,0,1,44,28l-.12,0H35.27a16.37,16.37,0,0,0-2,6h6.7A9.87,9.87,0,0,1,42.59,29.19Z" style="fill:none"/><path d="M82.69,50.41a51.56,51.56,0,0,1-5.07,4.91h9.52l.47-.51A68,68,0,0,0,98.26,39c.24-.51.47-1,.69-1.55v0h0l-.87-.35L90,40.48A60.82,60.82,0,0,1,82.69,50.41Z" style="fill:url(#Безымянный_градиент_36)"/><path d="M68.68,61.28A41.71,41.71,0,0,1,49.6,65.76a42.31,42.31,0,0,1-14.06-2.35L27.13,67A48.45,48.45,0,0,0,49.6,72.34a48.83,48.83,0,0,0,31.11-11H69.1A2.85,2.85,0,0,1,68.68,61.28Z" style="fill:url(#Безымянный_градиент_36-2)"/><path d="M99,37.39a3.58,3.58,0,0,0,.2-.78l-1.06.44Z" style="fill:url(#Безымянный_градиент_36-3)"/><path d="M82.69,21.93a61.42,61.42,0,0,1,9.59,14.23h0q-1.08,2.2-2.32,4.3l8.14-3.43-2.2-.88,2.21.88,1.06-.44A3.36,3.36,0,0,0,99,35v0l0,0c0-.14-.11-.28-.17-.42-.78-1.73-1.64-3.43-2.58-5.08a68.15,68.15,0,0,0-8.59-11.88A58.15,58.15,0,0,0,78.3,9.21L71.49,12.6A49.52,49.52,0,0,1,82.69,21.93Z" style="fill:url(#Безымянный_градиент_58)"/><path d="M40.54,28h3.37L44,28a9.88,9.88,0,1,1-4.1,6h-6.7a17.46,17.46,0,0,0-.16,2.17,16.38,16.38,0,0,0,4.84,11.62,16.6,16.6,0,0,0,23.39,0,16.38,16.38,0,0,0,0-23.25,16.7,16.7,0,0,0-6.12-3.83Z" style="fill:url(#Безымянный_градиент_58-2)"/><path d="M16.51,50.41a62.37,62.37,0,0,1-5.8-7.56l-5.94,3a69.12,69.12,0,0,0,6.82,9A55.73,55.73,0,0,0,27.13,67l8.41-3.54A46.61,46.61,0,0,1,16.51,50.41Z" style="fill:url(#Безымянный_градиент_58-3)"/><path d="M6.93,36.18h0a61.38,61.38,0,0,1,9.58-14.23c7-7.78,17.79-15.35,33.09-15.35a41.8,41.8,0,0,1,19.28,4.58l7.28-3.4A48.32,48.32,0,0,0,49.6,0c-17.76,0-30.16,8.86-38,17.53A68.28,68.28,0,0,0,1,33.35c-.25.52-.47,1-.69,1.56l0,0h0l3.08,1.23L.24,35a3.22,3.22,0,0,0,0,2.44v0l0,0c0,.14.11.28.17.42L1,39c.51,1.07,1.07,2.11,1.64,3.15l6-2.8C8,38.29,7.45,37.25,6.93,36.18Z" style="fill:url(#Безымянный_градиент_3)"/><path d="M50.45,19.77c-.28,0-.56,0-.85,0a16.59,16.59,0,0,0-11.69,4.81,17.54,17.54,0,0,0-1.54,1.81Z" style="fill:url(#Безымянный_градиент_3-2)"/><path d="M10,41.66,4,44.62c.24.4.49.8.74,1.19l5.94-3C10.46,42.45,10.2,42.06,10,41.66Z" style="fill:url(#Безымянный_градиент_62)"/><path d="M8.58,39.33l-6,2.8Q3.28,43.39,4,44.62l5.93-3C9.48,40.9,9,40.12,8.58,39.33Z" style="fill:url(#Безымянный_градиент_3-3)"/><path d="M8.58,39.33l-6,2.8Q3.28,43.39,4,44.62l5.93-3C9.48,40.9,9,40.12,8.58,39.33Z" style="fill:url(#Безымянный_градиент_62-2)"/><path d="M69.93,11.72c.53.28,1,.58,1.56.88L78.3,9.21c-.46-.33-.92-.66-1.39-1Z" style="fill:url(#Безымянный_градиент_62-3)"/><path d="M37.31,28h3.23l14.64-7.29a17.62,17.62,0,0,0-2.07-.6Z" style="fill:url(#Безымянный_градиент_62-4)"/><path d="M36.37,26.35A16.31,16.31,0,0,0,35.27,28h2l15.8-7.89a18.08,18.08,0,0,0-2.66-.34Z" style="fill:url(#Безымянный_градиент_3-4)"/><path d="M36.37,26.35A16.31,16.31,0,0,0,35.27,28h2l15.8-7.89a18.08,18.08,0,0,0-2.66-.34Z" style="fill:url(#Безымянный_градиент_62-5)"/><path d="M69.93,11.72l7-3.49-.75-.47-7.28,3.4C69.24,11.34,69.59,11.53,69.93,11.72Z" style="fill:url(#Безымянный_градиент_3-5)"/><path d="M69.93,11.72l7-3.49-.75-.47-7.28,3.4C69.24,11.34,69.59,11.53,69.93,11.72Z" style="fill:url(#Безымянный_градиент_62-6)"/></g></g></svg>