<svg xmlns="http://www.w3.org/2000/svg" xmlns:xlink="http://www.w3.org/1999/xlink" viewBox="0 0 78.64 74.34"><defs><linearGradient id="Безымянный_градиент_36" x1="41.86" y1="66.08" x2="79.39" y2="66.08" gradientUnits="userSpaceOnUse"><stop offset="0" stop-color="#f20365"/><stop offset="0.36" stop-color="#e40270"/><stop offset="1" stop-color="#c2008b"/></linearGradient><linearGradient id="Безымянный_градиент_58" x1="16.05" y1="58.32" x2="79.39" y2="58.32" gradientUnits="userSpaceOnUse"><stop offset="0" stop-color="#ff76dc"/><stop offset="1" stop-color="#b6058e"/></linearGradient><linearGradient id="Безымянный_градиент_3" x1="75.05" y1="34.19" x2="5.66" y2="72.14" gradientUnits="userSpaceOnUse"><stop offset="0" stop-color="#65c8d0" stop-opacity="0"/><stop offset="0.21" stop-color="#65c8d0" stop-opacity="0.26"/><stop offset="0.49" stop-color="#65c8d0" stop-opacity="0.58"/><stop offset="0.72" stop-color="#65c8d0" stop-opacity="0.81"/><stop offset="0.9" stop-color="#65c8d0" stop-opacity="0.95"/><stop offset="1" stop-color="#65c8d0"/></linearGradient><linearGradient id="Безымянный_градиент_62" x1="10.4" y1="57.65" x2="79.39" y2="57.65" gradientUnits="userSpaceOnUse"><stop offset="0" stop-color="#77b3e2"/><stop offset="0.13" stop-color="#6faad9"/><stop offset="0.34" stop-color="#5b92bf"/><stop offset="0.61" stop-color="#396a96"/><stop offset="0.93" stop-color="#0b335d"/><stop offset="1" stop-color="#00264f"/></linearGradient><linearGradient id="Безымянный_градиент_58-2" x1="17.41" y1="37.74" x2="63.95" y2="37.74" xlink:href="#Безымянный_градиент_58"/></defs><g id="Слой_2" data-name="Слой 2"><g id="Слой_1-2" data-name="Слой 1"><path d="M65.62,70.05c1.4-.6,2.73-1.14,4-1.81a2.75,2.75,0,0,1,.82-1.2l1-.89a3.07,3.07,0,0,1,.69-.46c.74-.78,1.49-1.54,2.26-2.29a15.33,15.33,0,0,0,2-4.59L41.86,73.35,60,73.09C61.9,72.08,63.63,70.9,65.62,70.05Z" style="fill:url(#Безымянный_градиент_36)"/><path d="M76.44,43.29,17.29,72.73c1.28.24,2.56.44,3.86.62H41.86l34.5-14.54A36.11,36.11,0,0,0,76.44,43.29Z" style="fill:url(#Безымянный_градиент_58)"/><path d="M74,33.3l-71,31.18c1.77.77,2.92,2.75,4.41,4.12a15.83,15.83,0,0,0,10,4.13l59-30.07a.83.83,0,0,0,0-.15C75.59,39.64,74.59,36.48,74,33.3Z" style="fill:url(#Безымянный_градиент_3)"/><path d="M13.69,71.81a19.87,19.87,0,0,0,3,.8l.65.12L76.44,43.29q-.07-.37-.15-.72Z" style="fill:url(#Безымянный_градиент_62)"/><path d="M22,24.05l9,17.71c.43.38.84.78,1.23,1.19A23.27,23.27,0,1,1,54.4,73.34H19.05A18.05,18.05,0,0,1,2.62,47.82L15.31,8.61C16.21,6.13,18.82,1,24,1c9.62,0,15.31,7.18,15.31,11.68a9.77,9.77,0,0,1-2.9,7.05,5.32,5.32,0,0,1-5.14,4.33H22Z" style="fill:none;stroke:gray;stroke-width:2px"/><path d="M20.14,21.32a2.75,2.75,0,0,0,2.74-2.74,2.74,2.74,0,0,0-4.67-1.94,2.75,2.75,0,0,0,1.93,4.68ZM64,50.07a9.58,9.58,0,1,1-2.8-6.78A9.6,9.6,0,0,1,64,50.07Z" style="fill:url(#Безымянный_градиент_58-2)"/><path d="M25.93,10.56c-1.45-.72-3.05.61-3.05,2.54H31.1Zm6.81,2.74c.91.61,1.57,1.88,1.57,3.95A3.91,3.91,0,0,1,33,20.57a3.94,3.94,0,0,1-2.37.75H15.37a5.23,5.23,0,0,0,4.56,2.73H30.69a6.56,6.56,0,0,0,4.05-1.34l.12-.09a5.6,5.6,0,0,0,1.71-4A5.45,5.45,0,0,0,32.74,13.3ZM7.65,55.54a9.45,9.45,0,0,1,.69-3.72A9.6,9.6,0,0,1,21,46.53a9.53,9.53,0,0,1,3.13,2.12,9.82,9.82,0,0,1,2.07,3.17,9.62,9.62,0,1,1-18.5,3.72Zm9.59-6.85a6.73,6.73,0,0,0-2.62.52,6.86,6.86,0,0,0-3.71,3.7,7,7,0,0,0-.52,2.63,6.92,6.92,0,0,0,.52,2.62,6.92,6.92,0,0,0,3.71,3.71,6.84,6.84,0,0,0,7.46-1.49,6.85,6.85,0,0,0-4.84-11.69Z" style="fill:#7b91bb"/><path d="M31.09,41.86l-.1-.09h0l-1.81-3.55a23.87,23.87,0,0,0-3.68-1.67,24.41,24.41,0,0,0-7.91-1.45,18.59,18.59,0,0,0-12.4,4.84l-2.5,7.71c2.82-5.7,8.46-9.81,14.9-9.81a21.66,21.66,0,0,1,7,1.29,18,18,0,0,1,5.09,2.7,24.49,24.49,0,0,0-.87,7,31.45,31.45,0,0,0,2.75,12.36A25.16,25.16,0,0,0,42.6,73.34H54.28c-10.43,0-17-6-20.25-13.29a28.86,28.86,0,0,1-2.5-11.28,22,22,0,0,1,.66-5.83c-.35-.38-.72-.74-1.1-1.08Z" style="fill:#7b91bb"/></g></g></svg>