<svg width="202" height="203" viewBox="0 0 202 203" fill="none" xmlns="http://www.w3.org/2000/svg">
<g clip-path="url(#clip0_26_287)">
<path d="M56.41 155.19V155.13C55.1923 156.356 54.0941 157.696 53.13 159.13C42.43 175 27.2 185.78 8.4 189.1C7.62 189.24 6.88 189.41 6.16 189.58L0 202.38H27.42C30.2608 197.846 33.8599 193.834 38.06 190.52C40.94 187.13 46.06 183.52 53.53 180.44C60.79 169.26 69.25 158.85 75.44 146.98C66.43 149 60.17 152 56.41 155.19Z" fill="#3BD1D8"/>
<path d="M111.66 80.48C111.6 81.03 111.54 81.58 111.49 82.13L118.94 96.62C119.391 94.0778 120.013 91.5689 120.8 89.11C124.25 80.11 128.24 71.61 140.33 72.71H140.64L131.39 53.03C119.55 56.59 113.35 65.25 111.66 80.48Z" fill="#FD037B"/>
<path d="M105 58.6499C104.29 60.4899 104.23 62.6499 102.66 64.1199L102.45 64.5199L111.45 82.1299C111.5 81.5799 111.56 81.0299 111.62 80.4799C113.31 65.2499 119.51 56.5899 131.35 53.0499L124.59 38.6599C115 41.9999 108.75 48.9999 105 58.6499Z" fill="#EF2FB0"/>
<path d="M91.5201 69.4499C90.8701 72.8399 89.4101 76.3599 90.7601 80.3599L100.11 59.9999L102.11 63.8799C102.28 63.9499 102.46 64.0299 102.65 64.1299C104.22 62.6499 104.28 60.4999 104.99 58.6599C108.75 48.9799 114.99 42.0499 124.63 38.6599L119.93 28.6599C119.04 29.0799 117.93 29.6599 116.58 30.4599C101.33 38.9999 94.6501 53.1599 91.5201 69.4499Z" fill="#AEE8EB"/>
<path d="M79.4298 156.64C82.3498 152.71 85.6698 149.06 89.2798 144.8C84.6251 145.244 80.0027 145.979 75.4398 147C69.2498 158.87 60.7898 169.28 53.5298 180.46C57.7478 178.765 62.0951 177.41 66.5298 176.41C67.1078 175.509 67.584 174.546 67.9498 173.54C70.3298 166.94 75.3698 162.11 79.4298 156.64Z" fill="#FD55C7"/>
<path d="M30.412 200.88H2.38629L86.9217 25.1803L87.222 24.5562L86.9416 23.9228L77.0145 1.5H105.537L199.208 200.88H170.232L157.629 172.707L157.232 171.82H156.26H96.16C78.0059 171.82 63.977 174.709 53.8729 178.688C43.8317 182.642 37.4866 187.749 34.9924 192.333L34.9879 192.341L30.412 200.88ZM143.31 145.5H145.767L144.644 143.314L101.474 59.3144L100.064 56.5703L98.7768 59.3742L55.0768 154.574L57.4172 156.338C60.746 153.479 66.3203 150.757 74.5052 148.755C82.6694 146.757 93.3375 145.5 106.76 145.5H143.31Z" stroke="#999999" stroke-width="3"/>
</g>
<defs>
<clipPath id="clip0_26_287">
<rect width="201.57" height="202.38" fill="white"/>
</clipPath>
</defs>
</svg>
