<svg width="226" height="262" viewBox="0 0 226 262" fill="none" xmlns="http://www.w3.org/2000/svg">
<path d="M17.2899 262C11.0027 262 6.17498 259.316 2.80681 253.949C-0.561362 248.581 -0.898179 242.878 1.79636 236.84L96.442 11.7413C99.8102 3.91378 105.312 0 112.946 0C121.03 0 126.531 3.91378 129.45 11.7413L224.433 237.511C226.903 243.773 226.453 249.476 223.085 254.62C219.942 259.54 215.114 262 208.602 262C205.234 262 201.978 261.105 198.834 259.316C195.915 257.303 193.782 254.62 192.435 251.265L108.904 44.6172H118.335L33.4572 251.265C31.8854 254.843 29.5276 257.527 26.384 259.316C23.4649 261.105 20.4336 262 17.2899 262ZM35.1413 204.3L48.6139 175.449H180.646L194.119 204.3H35.1413Z" fill="white"/>
</svg>
