<svg xmlns="http://www.w3.org/2000/svg" xmlns:xlink="http://www.w3.org/1999/xlink" viewBox="0 0 46.08 82.02"><defs><linearGradient id="Безымянный_градиент_36" x1="23.87" y1="72.61" x2="44.22" y2="72.61" gradientUnits="userSpaceOnUse"><stop offset="0" stop-color="#f20365"/><stop offset="0.36" stop-color="#e40270"/><stop offset="1" stop-color="#c2008b"/></linearGradient><linearGradient id="Безымянный_градиент_58" x1="9.88" y1="65.42" x2="44.22" y2="65.42" gradientUnits="userSpaceOnUse"><stop offset="0" stop-color="#ff76dc"/><stop offset="1" stop-color="#b6058e"/></linearGradient><linearGradient id="Безымянный_градиент_3" x1="45.45" y1="50.3" x2="1.92" y2="74.12" gradientUnits="userSpaceOnUse"><stop offset="0" stop-color="#65c8d0" stop-opacity="0"/><stop offset="0.21" stop-color="#65c8d0" stop-opacity="0.26"/><stop offset="0.49" stop-color="#65c8d0" stop-opacity="0.58"/><stop offset="0.72" stop-color="#65c8d0" stop-opacity="0.81"/><stop offset="0.9" stop-color="#65c8d0" stop-opacity="0.95"/><stop offset="1" stop-color="#65c8d0"/></linearGradient><linearGradient id="Безымянный_градиент_62" x1="6.81" y1="65.09" x2="44.22" y2="65.09" gradientUnits="userSpaceOnUse"><stop offset="0" stop-color="#77b3e2"/><stop offset="0.13" stop-color="#6faad9"/><stop offset="0.34" stop-color="#5b92bf"/><stop offset="0.61" stop-color="#396a96"/><stop offset="0.93" stop-color="#0b335d"/><stop offset="1" stop-color="#00264f"/></linearGradient></defs><g id="Слой_2" data-name="Слой 2"><g id="Слой_1-2" data-name="Слой 1"><path d="M4.54,40.43c0-9,.08-17.92,0-26.88-.07-5,1.19-7.54,5-7.47,9,.16,18.07.13,27.11,0,3.5,0,5,2.06,4.93,6.93q-.1,27.82,0,55.67c0,5.26-1.61,7.22-5.26,7.16q-13.32-.23-26.65,0C6,75.92,4.43,73.74,4.5,68.58,4.63,59.2,4.54,49.81,4.54,40.43Zm3,.22c0,8.1.07,16.2,0,24.3,0,4.53,1.24,6.69,4.6,6.64,7.19-.11,14.39-.14,21.58,0,3.59.08,4.86-2.17,4.83-7q-.13-23.67,0-47.33c0-4.82-1.25-7.06-4.83-7-7,.16-14.09.19-21.13,0-3.81-.11-5.17,2.21-5.07,7.32C7.68,25.29,7.56,33,7.57,40.65Z" style="fill:#999"/><polyline points="44.22 65.37 44.21 79.36 23.87 79.84" style="fill:url(#Безымянный_градиент_36)"/><polyline points="44.22 50.99 44.22 65.37 23.87 79.84 9.88 79.84" style="fill:url(#Безымянный_градиент_58)"/><polyline points="44.22 41.01 44.22 50.35 8.4 80.53 1.45 80.07 1.45 72.7" style="fill:url(#Безымянный_градиент_3)"/><polyline points="44.22 50.35 44.22 50.99 9.88 79.84 6.81 79.84" style="fill:url(#Безымянный_градиент_62)"/><path d="M46,0c0,26,0,52.06.06,78.09,0,3.2-.51,4-2.81,3.93Q23,81.75,2.82,82C.52,82.05,0,81.29,0,78.09.11,52.06.06,26,.06,0ZM43,41.41c0-10.22,0-20.43,0-30.65,0-4.36-1-6.8-4.47-6.76-10.39.11-20.78.09-31.17,0C4.31,4,3,5.94,3,10.2q.06,30.65,0,61.29C3,76.1,4.41,78,7.71,77.94q15.36-.18,30.72,0c3.33,0,4.68-2,4.64-6.52C43,61.42,43,51.41,43,41.41Z" style="fill:#999"/><path d="M22.66,39.47c-1.93,0-3.87.07-5.8,0-.7,0-1.63-.23-1.59-1.66a1.34,1.34,0,0,1,1.41-1.44q6.43-.06,12.86.05A1.31,1.31,0,0,1,30.83,38a1.37,1.37,0,0,1-1.42,1.44c-2.25.08-4.5,0-6.75,0Z" style="fill:#999"/><path d="M22.49,33c-2.74,0-5.49.1-8.23-.05-1-.06-2.33-.32-2.27-2.36a1.91,1.91,0,0,1,2-2q9.15-.09,18.29.06a1.87,1.87,0,0,1,1.83,2.24,2,2,0,0,1-2,2c-3.2.11-6.4,0-9.6,0Z" style="fill:#999"/><path d="M22.66,25.12c-1.93,0-3.87.07-5.8,0-.7,0-1.63-.23-1.59-1.66A1.34,1.34,0,0,1,16.68,22q6.43-.06,12.86.05a1.31,1.31,0,0,1,1.29,1.57A1.37,1.37,0,0,1,29.41,25c-2.25.07-4.5,0-6.75,0Z" style="fill:#999"/></g></g></svg>