<svg width="86" height="77" viewBox="0 0 86 77" fill="none" xmlns="http://www.w3.org/2000/svg">
<path d="M28.0494 0.414062C14.3864 3.95804 6.3475 17.3107 10.3292 30.8362C10.6644 20.5703 19.8162 11.8182 31.207 11.6039L28.0498 0.414062H28.0492H28.0494ZM62.7645 1.71012L30.0056 55.5957C12.8309 49.9857 2.88057 32.7727 6.86746 16.6616C-5.3548 36.2718 0.876147 60.2921 20.0724 71.9338L20.0573 71.9586L20.7656 72.3471C21.0254 72.4981 21.2859 72.6484 21.5502 72.7951L21.5583 72.7814L22.9711 73.5563L55.6541 19.7968C73.3914 25.0841 83.7697 42.6209 79.712 59.0176C92.2431 38.9116 85.3793 14.1668 65.029 2.88444L64.998 2.93522L62.764 1.70995L62.7645 1.71012ZM75.8451 45.5982C75.5102 55.8638 66.3578 64.6161 54.9672 64.8302L58.1245 76.0198C71.788 72.4767 79.8266 59.1236 75.8451 45.5984V45.5982Z" fill="url(#paint0_linear_99_492)" fill-opacity="0.5"/>
<defs>
<linearGradient id="paint0_linear_99_492" x1="-11.8443" y1="6.25593" x2="48.3318" y2="82.9839" gradientUnits="userSpaceOnUse">
<stop stop-color="#00E0FF"/>
<stop offset="0.208333" stop-color="#4031F6"/>
<stop offset="0.484375" stop-color="#9747FF"/>
<stop offset="0.723958" stop-color="#F80EC4"/>
<stop offset="0.989583" stop-color="#FF0000"/>
</linearGradient>
</defs>
</svg>
