<svg width="86" height="91" viewBox="0 0 86 91" fill="none" xmlns="http://www.w3.org/2000/svg">
<path d="M43.2901 54.5917C41.9455 54.5917 40.8192 54.1586 39.9113 53.2923C39.0001 52.429 38.5445 51.3582 38.5445 50.0798C38.5445 48.8014 39.0001 47.729 39.9113 46.8628C40.8192 45.9995 41.9455 45.5678 43.2901 45.5678C44.6346 45.5678 45.7625 45.9995 46.6736 46.8628C47.5816 47.729 48.0356 48.8014 48.0356 50.0798C48.0356 51.3582 47.5816 52.429 46.6736 53.2923C45.7625 54.1586 44.6346 54.5917 43.2901 54.5917ZM24.308 54.5917C22.9634 54.5917 21.8355 54.1586 20.9244 53.2923C20.0164 52.429 19.5624 51.3582 19.5624 50.0798C19.5624 48.8014 20.0164 47.729 20.9244 46.8628C21.8355 45.9995 22.9634 45.5678 24.308 45.5678C25.6525 45.5678 26.7804 45.9995 27.6915 46.8628C28.5995 47.729 29.0535 48.8014 29.0535 50.0798C29.0535 51.3582 28.5995 52.429 27.6915 53.2923C26.7804 54.1586 25.6525 54.5917 24.308 54.5917ZM62.2722 54.5917C60.9276 54.5917 59.8013 54.1586 58.8934 53.2923C57.9822 52.429 57.5267 51.3582 57.5267 50.0798C57.5267 48.8014 57.9822 47.729 58.8934 46.8628C59.8013 45.9995 60.9276 45.5678 62.2722 45.5678C63.6167 45.5678 64.743 45.9995 65.651 46.8628C66.5621 47.729 67.0177 48.8014 67.0177 50.0798C67.0177 51.3582 66.5621 52.429 65.651 53.2923C64.743 54.1586 63.6167 54.5917 62.2722 54.5917ZM43.2901 72.6396C41.9455 72.6396 40.8192 72.2064 39.9113 71.3401C39.0001 70.4768 38.5445 69.406 38.5445 68.1276C38.5445 66.8492 39.0001 65.7784 39.9113 64.9151C40.8192 64.0488 41.9455 63.6157 43.2901 63.6157C44.6346 63.6157 45.7625 64.0488 46.6736 64.9151C47.5816 65.7784 48.0356 66.8492 48.0356 68.1276C48.0356 69.406 47.5816 70.4768 46.6736 71.3401C45.7625 72.2064 44.6346 72.6396 43.2901 72.6396ZM24.308 72.6396C22.9634 72.6396 21.8355 72.2064 20.9244 71.3401C20.0164 70.4768 19.5624 69.406 19.5624 68.1276C19.5624 66.8492 20.0164 65.7784 20.9244 64.9151C21.8355 64.0488 22.9634 63.6157 24.308 63.6157C25.6525 63.6157 26.7804 64.0488 27.6915 64.9151C28.5995 65.7784 29.0535 66.8492 29.0535 68.1276C29.0535 69.406 28.5995 70.4768 27.6915 71.3401C26.7804 72.2064 25.6525 72.6396 24.308 72.6396ZM62.2722 72.6396C60.9276 72.6396 59.8013 72.2064 58.8934 71.3401C57.9822 70.4768 57.5267 69.406 57.5267 68.1276C57.5267 66.8492 57.9822 65.7784 58.8934 64.9151C59.8013 64.0488 60.9276 63.6157 62.2722 63.6157C63.6167 63.6157 64.743 64.0488 65.651 64.9151C66.5621 65.7784 67.0177 66.8492 67.0177 68.1276C67.0177 69.406 66.5621 70.4768 65.651 71.3401C64.743 72.2064 63.6167 72.6396 62.2722 72.6396ZM10.0714 90.6874C7.46134 90.6874 5.22619 89.8046 3.36595 88.0389C1.50886 86.2702 0.580322 84.1451 0.580322 81.6635V18.4961C0.580322 16.0145 1.50886 13.8909 3.36595 12.1252C5.22619 10.3565 7.46134 9.47216 10.0714 9.47216H14.8169V4.9602C14.8169 3.68181 15.2709 2.60947 16.1789 1.74317C17.09 0.879886 18.2179 0.448242 19.5624 0.448242C20.907 0.448242 22.0349 0.879886 22.946 1.74317C23.854 2.60947 24.308 3.68181 24.308 4.9602V9.47216H62.2722V4.9602C62.2722 3.68181 62.7278 2.60947 63.6389 1.74317C64.5469 0.879886 65.6731 0.448242 67.0177 0.448242C68.3623 0.448242 69.4885 0.879886 70.3965 1.74317C71.3077 2.60947 71.7632 3.68181 71.7632 4.9602V9.47216H76.5088C79.1188 9.47216 81.354 10.3565 83.2142 12.1252C85.0713 13.8909 85.9998 16.0145 85.9998 18.4961V81.6635C85.9998 84.1451 85.0713 86.2702 83.2142 88.0389C81.354 89.8046 79.1188 90.6874 76.5088 90.6874H10.0714ZM10.0714 81.6635H76.5088V36.5439H10.0714V81.6635ZM10.0714 27.52H76.5088V18.4961H10.0714V27.52ZM10.0714 27.52V18.4961V27.52Z" fill="url(#paint0_linear_99_495)" fill-opacity="0.5"/>
<defs>
<linearGradient id="paint0_linear_99_495" x1="-11.8443" y1="7.4208" x2="61.9485" y2="86.2531" gradientUnits="userSpaceOnUse">
<stop stop-color="#00E0FF"/>
<stop offset="0.208333" stop-color="#4031F6"/>
<stop offset="0.484375" stop-color="#9747FF"/>
<stop offset="0.723958" stop-color="#F80EC4"/>
<stop offset="0.989583" stop-color="#FF0000"/>
</linearGradient>
</defs>
</svg>
