<svg width="92" height="97" viewBox="0 0 92 97" fill="none" xmlns="http://www.w3.org/2000/svg">
<path d="M3.58032 25.8698L20.1897 34.8938M88.9998 70.9894L72.3905 61.9655M46.2901 48.4296L20.1897 34.8938M46.2901 48.4296L20.1897 61.9655M46.2901 48.4296V16.8459M46.2901 48.4296V77.7574M46.2901 48.4296L72.3905 61.9655M46.2901 48.4296L72.3905 34.8938M46.2901 3.31006V16.8459M46.2901 93.5492V77.7574M88.9998 25.8698L72.3905 34.8938M3.58032 70.9894L20.1897 61.9655M20.1897 34.8938L3.58032 39.4057M20.1897 34.8938L17.8169 19.1019M20.1897 61.9655L3.58032 57.4536M20.1897 61.9655L17.8169 77.7574M46.2901 16.8459L34.4263 12.334M46.2901 16.8459L58.1539 12.334M46.2901 77.7574L58.1539 84.5253M46.2901 77.7574L34.4263 84.5253M72.3905 61.9655L74.7632 77.7574M72.3905 61.9655L88.9998 57.4536M72.3905 34.8938L88.9998 39.4057M72.3905 34.8938L74.7632 19.1019" stroke="url(#paint0_linear_99_497)" stroke-opacity="0.5" stroke-width="6" stroke-linecap="round" stroke-linejoin="round"/>
<defs>
<linearGradient id="paint0_linear_99_497" x1="7.43383" y1="3.31006" x2="78.9368" y2="93.2462" gradientUnits="userSpaceOnUse">
<stop stop-color="#00E0FF"/>
<stop offset="0.25" stop-color="#4031F6"/>
<stop offset="0.5" stop-color="#9747FF"/>
<stop offset="0.739583" stop-color="#F80EC4"/>
<stop offset="1" stop-color="#FF0000"/>
</linearGradient>
</defs>
</svg>
