<svg width="71" height="68" viewBox="0 0 71 68" fill="none" xmlns="http://www.w3.org/2000/svg">
<path d="M45.5541 4.98682H63.2166V9.77767H45.5541V4.98682ZM45.5541 19.3594H70.7863V24.1502H45.5541V19.3594ZM45.5541 33.732H63.2166V38.5228H45.5541V33.732ZM25.3683 50.4999C25.3683 52.4059 24.5708 54.2337 23.1512 55.5814C21.7316 56.9291 19.8063 57.6862 17.7987 57.6862C15.7911 57.6862 13.8657 56.9291 12.4461 55.5814C11.0265 54.2337 10.229 52.4059 10.229 50.4999H25.3683Z" fill="url(#paint0_linear_99_486)" fill-opacity="0.5"/>
<path d="M70.7861 48.1044H35.2591C34.7227 44.5901 33.0266 41.3278 30.4146 38.7861V12.1729C30.4146 8.99641 29.0854 5.94997 26.7194 3.70382C24.3534 1.45767 21.1445 0.195801 17.7985 0.195801C14.4525 0.195801 11.2435 1.45767 8.87753 3.70382C6.51155 5.94997 5.18236 8.99641 5.18236 12.1729V38.7861C3.23057 40.677 1.77848 42.9799 0.94508 45.5063C0.111681 48.0327 -0.0793052 50.7106 0.38777 53.3205C0.854846 55.9305 1.96669 58.3982 3.63219 60.5216C5.29769 62.6449 7.46945 64.3634 9.96949 65.5361C12.4695 66.7089 15.2267 67.3026 18.0151 67.2686C20.8035 67.2346 23.5437 66.5738 26.0111 65.3405C28.4786 64.1071 30.6032 62.3363 32.2107 60.173C33.8181 58.0098 34.8628 55.5157 35.2591 52.8952H70.7861V48.1044ZM17.7985 62.4769C15.2443 62.4804 12.7494 61.7468 10.6444 60.3734C8.53948 58.9999 6.92398 57.0516 6.01212 54.7865C5.10026 52.5215 4.93511 50.0469 5.53856 47.6908C6.14202 45.3346 7.48557 43.2082 9.39109 41.5936L10.2288 40.8774V12.1729C10.2288 10.267 11.0263 8.43916 12.4459 7.09147C13.8655 5.74378 15.7909 4.98666 17.7985 4.98666C19.8061 4.98666 21.7314 5.74378 23.151 7.09147C24.5706 8.43916 25.3681 10.267 25.3681 12.1729V40.8774L26.2058 41.5936C28.1113 43.2082 29.4549 45.3346 30.0584 47.6908C30.6618 50.0469 30.4967 52.5215 29.5848 54.7865C28.6729 57.0516 27.0574 58.9999 24.9525 60.3734C22.8476 61.7468 20.3526 62.4804 17.7985 62.4769Z" fill="url(#paint1_linear_99_486)" fill-opacity="0.5"/>
<defs>
<linearGradient id="paint0_linear_99_486" x1="1.42067" y1="9.05877" x2="43.1905" y2="63.2278" gradientUnits="userSpaceOnUse">
<stop stop-color="#00E0FF"/>
<stop offset="0.208333" stop-color="#4031F6"/>
<stop offset="0.484375" stop-color="#9747FF"/>
<stop offset="0.723958" stop-color="#F80EC4"/>
<stop offset="0.989583" stop-color="#FF0000"/>
</linearGradient>
<linearGradient id="paint1_linear_99_486" x1="-10.1376" y1="5.37846" x2="44.0208" y2="69.7562" gradientUnits="userSpaceOnUse">
<stop stop-color="#00E0FF"/>
<stop offset="0.208333" stop-color="#4031F6"/>
<stop offset="0.484375" stop-color="#9747FF"/>
<stop offset="0.723958" stop-color="#F80EC4"/>
<stop offset="0.989583" stop-color="#FF0000"/>
</linearGradient>
</defs>
</svg>
