<svg width="71" height="68" viewBox="0 0 71 68" fill="none" xmlns="http://www.w3.org/2000/svg">
<path d="M35.4623 46.7544C31.9491 46.7544 28.5798 45.4295 26.0956 43.0711C23.6114 40.7128 22.2158 37.5141 22.2158 34.1789C22.2158 30.8436 23.6114 27.645 26.0956 25.2866C28.5798 22.9282 31.9491 21.6033 35.4623 21.6033C38.9755 21.6033 42.3447 22.9282 44.8289 25.2866C47.3131 27.645 48.7087 30.8436 48.7087 34.1789C48.7087 37.5141 47.3131 40.7128 44.8289 43.0711C42.3447 45.4295 38.9755 46.7544 35.4623 46.7544ZM35.4623 50.9463C40.1465 50.9463 44.6389 49.1797 47.9512 46.0352C51.2634 42.8907 53.1242 38.6259 53.1242 34.1789C53.1242 29.7319 51.2634 25.467 47.9512 22.3225C44.6389 19.178 40.1465 17.4115 35.4623 17.4115C30.778 17.4115 26.2857 19.178 22.9734 22.3225C19.6612 25.467 17.8004 29.7319 17.8004 34.1789C17.8004 38.6259 19.6612 42.8907 22.9734 46.0352C26.2857 49.1797 30.778 50.9463 35.4623 50.9463ZM35.4623 0.644043C36.0478 0.644043 36.6094 0.864863 37.0234 1.25793C37.4374 1.65099 37.67 2.1841 37.67 2.73997V11.1237C37.67 11.6796 37.4374 12.2127 37.0234 12.6057C36.6094 12.9988 36.0478 13.2196 35.4623 13.2196C34.8768 13.2196 34.3152 12.9988 33.9012 12.6057C33.4871 12.2127 33.2545 11.6796 33.2545 11.1237V2.73997C33.2545 2.1841 33.4871 1.65099 33.9012 1.25793C34.3152 0.864863 34.8768 0.644043 35.4623 0.644043V0.644043ZM35.4623 55.1381C36.0478 55.1381 36.6094 55.359 37.0234 55.752C37.4374 56.1451 37.67 56.6782 37.67 57.2341V65.6178C37.67 66.1736 37.4374 66.7067 37.0234 67.0998C36.6094 67.4929 36.0478 67.7137 35.4623 67.7137C34.8768 67.7137 34.3152 67.4929 33.9012 67.0998C33.4871 66.7067 33.2545 66.1736 33.2545 65.6178V57.2341C33.2545 56.6782 33.4871 56.1451 33.9012 55.752C34.3152 55.359 34.8768 55.1381 35.4623 55.1381ZM70.7861 34.1789C70.7861 34.7347 70.5535 35.2678 70.1395 35.6609C69.7255 36.054 69.1639 36.2748 68.5784 36.2748H59.7474C59.1619 36.2748 58.6004 36.054 58.1863 35.6609C57.7723 35.2678 57.5397 34.7347 57.5397 34.1789C57.5397 33.623 57.7723 33.0899 58.1863 32.6968C58.6004 32.3038 59.1619 32.0829 59.7474 32.0829H68.5784C69.1639 32.0829 69.7255 32.3038 70.1395 32.6968C70.5535 33.0899 70.7861 33.623 70.7861 34.1789ZM13.3849 34.1789C13.3849 34.7347 13.1523 35.2678 12.7382 35.6609C12.3242 36.054 11.7627 36.2748 11.1771 36.2748H2.34617C1.76064 36.2748 1.19909 36.054 0.78506 35.6609C0.371028 35.2678 0.138428 34.7347 0.138428 34.1789C0.138428 33.623 0.371028 33.0899 0.78506 32.6968C1.19909 32.3038 1.76064 32.0829 2.34617 32.0829H11.1771C11.7627 32.0829 12.3242 32.3038 12.7382 32.6968C13.1523 33.0899 13.3849 33.623 13.3849 34.1789ZM60.4407 10.4656C60.8546 10.8586 61.0871 11.3916 61.0871 11.9474C61.0871 12.5031 60.8546 13.0361 60.4407 13.4292L54.1972 19.3607C53.9919 19.5553 53.7483 19.7096 53.4802 19.8148C53.2121 19.92 52.9248 19.974 52.6347 19.9738C52.0489 19.9734 51.4872 19.7521 51.0732 19.3586C50.8682 19.1637 50.7057 18.9324 50.5949 18.6779C50.4841 18.4234 50.4271 18.1507 50.4273 17.8753C50.4277 17.3191 50.6609 16.7858 51.0754 16.3928L57.3189 10.4656C57.7329 10.0726 58.2944 9.8519 58.8798 9.8519C59.4652 9.8519 60.0267 10.0726 60.4407 10.4656ZM19.8491 49.0013C20.263 49.3943 20.4955 49.9273 20.4955 50.4831C20.4955 51.0388 20.263 51.5719 19.8491 51.9649L13.6056 57.8922C13.1893 58.274 12.6316 58.4852 12.0527 58.4804C11.4739 58.4757 10.9201 58.2553 10.5108 57.8666C10.1015 57.478 9.86928 56.9524 9.86425 56.4028C9.85922 55.8533 10.0817 55.3238 10.4839 54.9285L16.7274 49.0013C17.1414 48.6083 17.7029 48.3876 18.2883 48.3876C18.8737 48.3876 19.4351 48.6083 19.8491 49.0013ZM60.4407 57.8922C60.0267 58.2851 59.4652 58.5058 58.8798 58.5058C58.2944 58.5058 57.7329 58.2851 57.3189 57.8922L51.0754 51.9649C50.6733 51.5696 50.4507 51.0402 50.4558 50.4906C50.4608 49.9411 50.693 49.4154 51.1023 49.0268C51.5117 48.6382 52.0654 48.4178 52.6442 48.413C53.2231 48.4082 53.7808 48.6195 54.1972 49.0013L60.4407 54.9285C60.8546 55.3216 61.0871 55.8546 61.0871 56.4104C61.0871 56.9661 60.8546 57.4991 60.4407 57.8922ZM19.8491 19.3607C19.4351 19.7536 18.8737 19.9743 18.2883 19.9743C17.7029 19.9743 17.1414 19.7536 16.7274 19.3607L10.4839 13.4292C10.273 13.2359 10.1048 13.0046 9.98914 12.7489C9.87344 12.4932 9.81254 12.2181 9.80999 11.9398C9.80744 11.6615 9.8633 11.3855 9.97431 11.128C10.0853 10.8704 10.2492 10.6364 10.4565 10.4396C10.6638 10.2428 10.9103 10.0872 11.1817 9.98177C11.453 9.87638 11.7437 9.82335 12.0368 9.82577C12.33 9.82819 12.6197 9.88601 12.889 9.99586C13.1584 10.1057 13.402 10.2654 13.6056 10.4656L19.8491 16.3928C20.0547 16.5875 20.2179 16.8188 20.3292 17.0735C20.4405 17.3281 20.4977 17.6011 20.4977 17.8768C20.4977 18.1524 20.4405 18.4254 20.3292 18.6801C20.2179 18.9347 20.0547 19.166 19.8491 19.3607Z" fill="url(#paint0_linear_99_490)" fill-opacity="0.5"/>
<defs>
<linearGradient id="paint0_linear_99_490" x1="-10.1376" y1="5.82635" x2="44.0165" y2="70.2034" gradientUnits="userSpaceOnUse">
<stop stop-color="#00E0FF"/>
<stop offset="0.208333" stop-color="#4031F6"/>
<stop offset="0.484375" stop-color="#9747FF"/>
<stop offset="0.723958" stop-color="#F80EC4"/>
<stop offset="0.989583" stop-color="#FF0000"/>
</linearGradient>
</defs>
</svg>
