<svg width="185" height="207" viewBox="0 0 185 207" fill="none" xmlns="http://www.w3.org/2000/svg">
<g clip-path="url(#clip0_26_301)">
<path d="M184.39 188.48V167.48C180.45 169.14 178.14 172.88 174.67 175.14C173.838 175.674 173.072 176.305 172.39 177.02V194.02H155.75V193.02C155.66 193.11 155.57 193.19 155.48 193.29C151.6 197.54 147.69 201.77 143.8 206H169.8C174.09 199.75 178.13 193.19 184.39 188.48Z" fill="#EB26AA"/>
<path d="M184.39 188.48C178.13 193.19 174.09 199.75 169.77 206.07H183.91C184.087 206.035 184.252 205.955 184.39 205.84V188.48Z" fill="#92E1E6"/>
<path d="M172.39 134C173.125 133.947 173.851 133.803 174.55 133.57C177.81 132.57 181.11 131.63 184.39 130.68V124.68C180.39 125.93 176.28 126.99 172.39 128.61V134Z" fill="#FC46BF"/>
<path d="M172.39 125.55V128.55C176.28 126.93 180.39 125.87 184.39 124.62V121.62C180.58 122.87 176.81 124.23 172.95 125.3C172.75 125.42 172.57 125.49 172.39 125.55Z" fill="#92E1E6"/>
<path d="M12 101.35V84.9999C12 84.9399 11.94 84.8899 11.92 84.8299L11.86 84.7499C10.98 84.3999 10.43 83.8699 10.86 82.8399C9.06 82.5999 8.63 81.4599 8.86 79.8399C8.76046 79.8825 8.65329 79.9045 8.545 79.9045C8.43671 79.9045 8.32954 79.8825 8.23 79.8399C8.14081 79.8073 8.06157 79.7522 8 79.6799C7.89867 79.4185 7.84777 79.1402 7.85 78.8599V78.8599C6.79 78.5599 6.85 77.7399 6.85 76.8599C5.85 76.5599 5.85 75.7199 5.85 74.8599H5.79C2.09 69.8599 2.71 64.4499 4.49 59.0199C5.49 55.9199 6.88 52.9299 7.99 49.8599C9.88 44.5799 8.6 42.9299 2.9 43.1699C1.92739 43.251 0.959488 43.3812 0 43.5599L0 90.8299C0.106465 91.5697 0.422204 92.2636 0.91 92.8299C3.99718 96.3856 7.76882 99.2832 12 101.35V101.35Z" fill="#FC46BF"/>
<path d="M101.46 107.24C96.21 106.7 90.79 106.06 85.65 105.46L77.8 104.55C77.81 104.72 77.81 104.89 77.8 105.06C77.8 105.24 77.8 105.41 77.8 105.59C77.7585 105.926 77.6984 106.26 77.62 106.59C77.54 107 77.43 107.41 77.33 107.82C76.8056 109.294 76.6747 110.88 76.95 112.42C80.86 114.86 85.82 115.08 89.72 117.55C89.97 117.7 90.2 117.87 90.44 118.04C97.51 118.86 104.77 119.65 111.34 120.15C111.316 119.973 111.276 119.799 111.22 119.63C110.07 116.27 105.68 109.88 101.46 107.24Z" fill="#92E1E6"/>
<path d="M50.3502 103.55C44.0528 104.225 37.912 105.946 32.1802 108.64C38.1802 110.27 43.5802 113.64 49.4202 115.76C52.7055 115.252 56.0259 115.005 59.3502 115.02C63.9802 115.02 73.2502 116.09 83.1802 117.25C72.9902 113.05 62.8002 108.85 52.5702 104.73C51.7786 104.443 51.0313 104.045 50.3502 103.55V103.55Z" fill="#FC46BF"/>
<path d="M8 49.8599C6.91 52.9299 5.54 55.9199 4.52 58.9999C2.74 64.4299 2.12 69.8299 5.82 74.8399C2.8 64.4499 7.4 56.0599 12 47.6699V24.4199C10.38 24.6899 7.84 25.4799 4 26.4199C1.89 26.9299 0.55 27.7499 0 29.3699V36.8399C0 37.6399 0 38.4399 0 39.2399V43.5699C0.969402 43.3902 1.94734 43.26 2.93 43.1799C8.63 42.9299 9.91 44.5799 8 49.8599Z" fill="#47D2D9"/>
<path d="M11.21 191.22C11.5 191.11 11.75 191 12 190.88V182.12C10.81 180.21 9.69 178.26 9.87 175.79C5.94 170.69 4.47 164.16 0.15 159.29C0.15 162.19 0.05 165.1 0 168.01V189.54C0.63 194.72 3 194.33 11.21 191.22Z" fill="#47D2D9"/>
<path d="M12.0001 47.6699C7.40013 56.0599 2.80013 64.4499 5.82013 74.8599H5.88013C6.82013 75.2099 6.94013 75.9599 6.88013 76.8599C7.82013 77.2099 7.96013 77.9599 7.88013 78.8599L8.88013 79.8599C9.53293 80.0111 10.1034 80.4057 10.4751 80.9633C10.8468 81.5208 10.9917 82.1992 10.8801 82.8599V82.8599C11.2591 82.9905 11.5739 83.261 11.7598 83.6161C11.9457 83.9713 11.9888 84.3841 11.8801 84.7699L11.9401 84.8499H12.0001V47.6699Z" fill="#6ED9DF"/>
<path d="M28.3799 43.13L28.5999 43.29C31.0099 44.7 33.5999 40.5 36.4299 39.43C37.8847 38.9292 39.239 38.1741 40.4299 37.2V28.45L28.3799 31V43.13Z" fill="#6ED9DF"/>
<path d="M29.1198 94.8999L36.9998 90.9999C38.9031 90.0741 40.8758 89.2984 42.8998 88.6799C39.4498 87.0599 35.7498 86.3299 32.4398 84.6799C30.4398 83.6799 29.0598 83.5199 28.3398 84.3799V93.6299C28.5146 94.1 28.7796 94.5314 29.1198 94.8999Z" fill="#6ED9DF"/>
<path d="M59.35 103C57.45 103 55.61 103.08 53.79 103.21C61.2896 106.793 69.0162 109.879 76.92 112.45C76.6447 110.91 76.7757 109.324 77.3 107.85C77.4 107.44 77.51 107.03 77.59 106.62C77.6684 106.29 77.7285 105.956 77.77 105.62C77.77 105.44 77.77 105.27 77.77 105.09C77.78 104.92 77.78 104.75 77.77 104.58C70 103.67 63.51 103 59.35 103Z" fill="#6ED9DF"/>
<path d="M36.3799 21.14C31.2599 21.26 29.1899 20.8 28.3799 22.01V31.01L40.3799 28.48V21.21C39.0499 21.0919 37.7132 21.0685 36.3799 21.14V21.14Z" fill="#47D2D9"/>
<path d="M148.48 140.53C149.34 140.14 150.34 139.48 151.16 139.62C153.41 139.99 154.87 139.72 155.75 138.94V133.74L143.75 136.16V141.67C144.78 141.94 146.3 141.53 148.48 140.53Z" fill="#FC46BF"/>
<path d="M76.9201 112.47C69.0162 109.899 61.2896 106.813 53.7901 103.23C52.6301 103.31 51.4801 103.42 50.3501 103.55C51.0312 104.045 51.7785 104.442 52.5701 104.73C62.8001 108.85 72.9901 113.05 83.1801 117.25L84.2501 117.38L90.4101 118.09C90.1701 117.92 89.9401 117.75 89.6901 117.6C85.7901 115.13 80.8301 114.91 76.9201 112.47Z" fill="#47D2D9"/>
<path d="M0.149902 159.29C4.4699 164.16 5.9399 170.69 9.8699 175.79C9.5199 167.22 4.3499 160.79 0.149902 152.5V159.29Z" fill="#FC46BF"/>
<path d="M31.7202 108.85L30.2402 109.58C30.2402 110.11 31.6602 110.42 32.0702 110.58C36.2902 112.69 40.5802 114.64 44.8302 116.68C46.3422 116.269 47.8742 115.935 49.4202 115.68C43.5802 113.54 38.2202 110.19 32.1802 108.56C32.0002 108.71 31.8702 108.77 31.7202 108.85Z" fill="#EB26AA"/>
<path d="M155.75 130.82C154.887 130.5 153.943 130.469 153.06 130.73C150.37 131.28 147.71 132.28 145 132.4C144.579 132.42 144.16 132.481 143.75 132.58V136.16L155.75 133.74V130.82Z" fill="#92E1E6"/>
<path d="M8.84001 79.8601C8.61001 81.4501 9.04001 82.5901 10.84 82.8601C10.9516 82.1994 10.8067 81.521 10.435 80.9634C10.0633 80.4059 9.49281 80.0113 8.84001 79.8601Z" fill="#47D2D9"/>
<path d="M11.9199 84.8301C11.9199 84.8901 11.9799 84.9401 11.9999 85.0001V84.8201L11.9199 84.8301Z" fill="#47D2D9"/>
<path d="M5.88024 74.8799C5.88024 75.6999 5.80024 76.5399 6.88024 76.8799C6.94024 75.9999 6.82024 75.2299 5.88024 74.8799Z" fill="#47D2D9"/>
<path d="M6.86998 76.8701C6.86998 77.7101 6.78998 78.5301 7.86998 78.8701C7.99998 78.0001 7.80998 77.2201 6.86998 76.8701Z" fill="#47D2D9"/>
<path d="M10.8299 82.8401C10.4299 83.8401 10.9799 84.4001 11.8299 84.7501C11.9386 84.3642 11.8955 83.9514 11.7096 83.5963C11.5237 83.2412 11.2089 82.9706 10.8299 82.8401V82.8401Z" fill="#47D2D9"/>
<path d="M8.83015 79.8701L7.83015 78.8701C7.82792 79.1505 7.87882 79.4287 7.98015 79.6901C8.02358 79.7586 8.08164 79.8167 8.15015 79.8601C8.2558 79.9116 8.3715 79.9392 8.48903 79.941C8.60656 79.9427 8.72303 79.9185 8.83015 79.8701V79.8701Z" fill="#47D2D9"/>
<path d="M123.226 81.63C113.616 81.6295 98.7384 79.8831 85.7091 78.3537L85.5051 78.3298C74.2944 77.0138 64.7685 75.9 59.38 75.9H59.3728L59.3657 75.8999C53.0872 75.84 46.8313 76.6598 40.7803 78.3356L38.88 78.8619V76.89V1.5H1.5V204.57H38.85V118.14V117.088L39.8393 116.73C46.0947 114.464 52.7152 113.376 59.3666 113.52C64.2849 113.523 74.1521 114.678 84.4258 115.89L84.6745 115.919C98.0993 117.486 113.121 119.24 123.2 119.24H123.203C130.007 119.252 136.786 118.408 143.379 116.727L145.25 116.249V118.18V204.57H182.89L182.92 1.5H145.28V77.05V78.1524L144.228 78.4816C137.431 80.6079 130.347 81.67 123.226 81.63ZM123.226 81.63C123.224 81.63 123.223 81.63 123.221 81.63L123.23 80.13V81.63C123.229 81.63 123.227 81.63 123.226 81.63ZM154.25 195.57V194.07V102.923L147.956 105.646L154.25 195.57ZM154.25 195.57H155.75H172.39H173.89V194.07V12V10.5H172.39H155.75H154.25V12V84.1356M154.25 195.57V84.1356M154.25 84.1356L151.534 85.3136C140.891 89.9234 129.242 90.63 123.2 90.63C113.059 90.63 97.912 88.8546 84.425 87.2702L84.4243 87.2702L83.8659 87.2048C73.786 86.0251 64.1734 84.9 59.35 84.9C50.3872 84.9 42.8581 86.4303 36.3352 89.6554L36.3342 89.6559L29.84 92.873V12V10.5H28.34H12H10.5V12V194.07V195.57H12H28.38H29.88V194.07V111.432L32.3832 110.195L154.25 84.1356ZM59.35 104.5C49.0187 104.5 39.9533 106.464 32.3844 110.195L59.35 104.5ZM59.35 104.5C64.7385 104.5 74.2644 105.614 85.4751 106.93M59.35 104.5L85.4751 106.93M85.4751 106.93C98.5562 108.465 113.541 110.22 123.2 110.22M85.4751 106.93L123.2 110.22M123.2 110.22C132.187 110.22 141.198 108.575 147.956 105.647L123.2 110.22Z" stroke="#999999" stroke-width="3"/>
</g>
<defs>
<clipPath id="clip0_26_301">
<rect width="184.39" height="206.07" fill="white"/>
</clipPath>
</defs>
</svg>
