<svg width="71" height="68" viewBox="0 0 71 68" fill="none" xmlns="http://www.w3.org/2000/svg">
<path d="M15.8379 2.26837C15.8379 0.207841 14.0796 0.0327148 11.913 0.0327148C9.74259 0.0327148 7.98817 0.207841 7.98817 2.26837V33.5675H15.8379V2.26837ZM7.98817 64.8667C7.98817 66.9198 9.74259 67.1024 11.913 67.1024C14.0796 67.1024 15.8379 66.9198 15.8379 64.8667V52.198H7.98817V64.8667ZM21.3288 37.2936H2.48943C0.318972 37.2936 0.138428 38.9629 0.138428 41.0197V44.7458C0.138428 46.8063 0.318972 48.4719 2.48943 48.4719H21.3327C23.4914 48.4719 23.6877 46.8063 23.6877 44.7458V41.0197C23.6877 38.9629 23.4914 37.2936 21.3288 37.2936ZM68.4273 41.0197H49.584C47.4174 41.0197 47.2369 42.689 47.2369 44.7458V48.4719C47.2369 50.5324 47.4174 52.198 49.5879 52.198H68.4312C70.5899 52.198 70.7861 50.5324 70.7861 48.4719V44.7458C70.7861 42.689 70.5899 41.0197 68.4273 41.0197ZM47.2369 22.3893C47.2369 20.3325 47.0407 18.6632 44.8781 18.6632H26.0387C23.8682 18.6632 23.6877 20.3325 23.6877 22.3893V26.1154C23.6877 28.1759 23.8682 29.8414 26.0387 29.8414H44.882C47.0407 29.8414 47.2369 28.1759 47.2369 26.1154V22.3893ZM39.3872 2.26837C39.3872 0.207841 37.6288 0.0327148 35.4623 0.0327148C33.2918 0.0327148 31.5374 0.207841 31.5374 2.26837V14.9371H39.3872V2.26837ZM31.5374 64.8667C31.5374 66.9198 33.2918 67.1024 35.4623 67.1024C37.6288 67.1024 39.3872 66.9198 39.3872 64.8667V33.5675H31.5374V64.8667ZM62.9364 2.26837C62.9364 0.207841 61.1781 0.0327148 59.0115 0.0327148C56.8411 0.0327148 55.0866 0.207841 55.0866 2.26837V37.2936H62.9364V2.26837ZM55.0866 64.8667C55.0866 66.9198 56.8411 67.1024 59.0115 67.1024C61.1781 67.1024 62.9364 66.9198 62.9364 64.8667V55.9241H55.0866V64.8667Z" fill="url(#paint0_linear_99_485)" fill-opacity="0.5"/>
<defs>
<linearGradient id="paint0_linear_99_485" x1="-2.43058" y1="-1.18673" x2="67.048" y2="70.7145" gradientUnits="userSpaceOnUse">
<stop stop-color="#00E0FF"/>
<stop offset="0.260417" stop-color="#4031F6"/>
<stop offset="0.479167" stop-color="#8F6DD2"/>
<stop offset="0.723958" stop-color="#F80EC4"/>
<stop offset="1" stop-color="#FF0000"/>
</linearGradient>
</defs>
</svg>
