<svg width="71" height="68" viewBox="0 0 71 68" fill="none" xmlns="http://www.w3.org/2000/svg">
<path d="M61.894 12.9114C63.7816 15.2183 65.1169 17.8881 65.8068 20.7348C66.4968 23.5816 66.5248 26.537 65.8889 29.3951C65.253 32.2532 63.9684 34.9453 62.1248 37.284C60.2811 39.6227 57.9226 41.5518 55.2135 42.9369C52.9231 44.1129 50.1669 43.3892 48.3248 41.6437L27.8916 22.242C26.0494 20.4932 25.2872 17.8766 26.5223 15.7022C27.9813 13.1298 30.0134 10.8903 32.4772 9.13962C34.9409 7.38897 37.7771 6.16931 40.7881 5.56558C43.7992 4.96186 46.9126 4.98859 49.9117 5.64392C52.9107 6.29925 55.7232 7.56742 58.1532 9.36008L66.2347 1.68787C66.4787 1.44777 66.7707 1.25622 67.0935 1.12439C67.4164 0.992553 67.7637 0.923083 68.1151 0.920027C68.4665 0.916972 68.8151 0.980393 69.1404 1.10659C69.4658 1.23279 69.7614 1.41923 70.01 1.65505C70.2587 1.89086 70.4553 2.17132 70.5886 2.48007C70.7218 2.78881 70.7889 3.11966 70.786 3.4533C70.7831 3.78694 70.7103 4.11669 70.5717 4.42331C70.4332 4.72994 70.2317 5.0073 69.979 5.2392L61.8975 12.9114H61.894ZM54.7759 37.2447C56.5794 35.9422 58.0685 34.2883 59.143 32.3942C60.2175 30.5 60.8525 28.4095 61.0054 26.2631C61.1583 24.1166 60.8256 21.964 60.0296 19.9497C59.2335 17.9355 57.9926 16.1063 56.3903 14.585C54.7879 13.0638 52.8611 11.8858 50.7394 11.1301C48.6177 10.3743 46.3502 10.0585 44.0892 10.2036C41.8283 10.3488 39.6262 10.9517 37.6311 11.9717C35.6359 12.9918 33.8937 14.4054 32.5217 16.1177C31.583 17.2869 31.8653 18.9085 32.9628 19.9471L50.7386 36.8259C51.8327 37.8645 53.5442 38.1359 54.7759 37.2447ZM4.68813 67.22L12.7696 59.5478C15.1996 61.3398 18.0118 62.6075 21.0105 63.2625C24.0091 63.9175 27.1221 63.944 30.1327 63.3403C33.1432 62.7366 35.979 61.5172 38.4425 59.7669C40.906 58.0166 42.938 55.7775 44.3969 53.2056C45.6356 51.0313 44.8734 48.4147 43.0312 46.6658L40.4771 44.241L42.6969 37.284L40.1428 34.8592L32.8146 36.9667L35.0345 30.0097L32.4803 27.5849L25.1522 29.6923L22.598 27.2675C20.7559 25.5186 17.9997 24.795 15.7093 25.9676C12.9997 27.3526 10.6407 29.2818 8.79664 31.6208C6.95259 33.9598 5.66786 36.6523 5.03193 39.5109C4.39599 42.3694 4.42415 45.3252 5.11444 48.1723C5.80473 51.0194 7.14056 53.6895 9.02886 55.9964L0.947345 63.6686C0.694438 63.9003 0.492665 64.1775 0.3538 64.484C0.214934 64.7905 0.141757 65.1202 0.138539 65.4538C0.13532 65.7875 0.202125 66.1184 0.335054 66.4272C0.467983 66.7361 0.664376 67.0167 0.912771 67.2528C1.16117 67.4888 1.45659 67.6755 1.78181 67.802C2.10702 67.9285 2.45552 67.9922 2.80695 67.9895C3.15839 67.9867 3.50574 67.9176 3.82872 67.786C4.1517 67.6545 4.44386 67.4632 4.68813 67.2233V67.22ZM20.1806 32.0819L37.96 48.9608C39.054 49.9994 39.3363 51.6209 38.4011 52.7902C37.0291 54.5024 35.287 55.916 33.2918 56.9361C31.2966 57.9562 29.0945 58.559 26.8336 58.7042C24.5726 58.8494 22.3051 58.5335 20.1834 57.7778C18.0617 57.0221 16.135 55.844 14.5326 54.3228C12.9302 52.8016 11.6893 50.9724 10.8933 48.9581C10.0972 46.9439 9.76449 44.7912 9.91741 42.6448C10.0703 40.4983 10.7054 38.4078 11.7799 36.5137C12.8543 34.6195 14.3434 32.9656 16.1469 31.6631C17.3786 30.7719 19.0866 31.04 20.1806 32.0819Z" fill="url(#paint0_linear_99_489)" fill-opacity="0.5"/>
<defs>
<linearGradient id="paint0_linear_99_489" x1="-10.1376" y1="6.10223" x2="44.0165" y2="70.4793" gradientUnits="userSpaceOnUse">
<stop stop-color="#00E0FF"/>
<stop offset="0.208333" stop-color="#4031F6"/>
<stop offset="0.484375" stop-color="#9747FF"/>
<stop offset="0.723958" stop-color="#F80EC4"/>
<stop offset="0.989583" stop-color="#FF0000"/>
</linearGradient>
</defs>
</svg>
