<svg width="71" height="96" viewBox="0 0 71 96" fill="none" xmlns="http://www.w3.org/2000/svg">
<path d="M0.138428 48.5361C0.138428 47.6195 0.920589 46.877 1.88362 46.877H22.8333C23.7988 46.877 24.5809 47.6195 24.5809 48.5361V68.4224C24.5809 69.339 23.7988 70.0815 22.8333 70.0815H1.88362C1.42077 70.0815 0.976872 69.907 0.649585 69.5963C0.322298 69.2855 0.138428 68.8641 0.138428 68.4247V48.5338V48.5361Z" fill="#F521BA" fill-opacity="0.5"/>
<path d="M17.1106 4.19866C17.1106 2.18682 18.8313 0.553223 20.9505 0.553223H67.0466C69.1633 0.553223 70.8841 2.18682 70.8841 4.19866V47.9602C70.8841 49.972 69.1633 51.6056 67.0442 51.6056H20.9481C20.4438 51.6053 19.9445 51.5107 19.4788 51.3272C19.013 51.1437 18.5899 50.875 18.2336 50.5362C17.8772 50.1975 17.5946 49.7955 17.402 49.3531C17.2093 48.9107 17.1103 48.4366 17.1106 47.9578V4.19634V4.19866Z" fill="#7300FA" fill-opacity="0.5"/>
<path d="M17.1106 61.0402C17.1106 59.5876 18.3498 58.4111 19.8775 58.4111H53.1046C54.6347 58.4111 55.874 59.5876 55.874 61.0402V92.5845C55.874 94.0371 54.6347 95.2136 53.1046 95.2136H19.8799C19.1459 95.213 18.4421 94.9357 17.9233 94.4427C17.4045 93.9497 17.113 93.2814 17.113 92.5845V61.0402H17.1106Z" fill="#00E0FF" fill-opacity="0.5"/>
</svg>
