<svg width="90" height="86" viewBox="0 0 90 86" fill="none" xmlns="http://www.w3.org/2000/svg">
<path d="M22.4069 82.0681C17.5618 82.0681 12.9152 80.2409 9.48915 76.9884C6.06314 73.7359 4.13843 69.3246 4.13843 64.7249V12.6951C4.13843 10.3952 5.10078 8.18955 6.81379 6.5633C8.52679 4.93705 10.8501 4.02344 13.2727 4.02344H31.5412C33.9637 4.02344 36.2871 4.93705 38.0001 6.5633C39.7131 8.18955 40.6754 10.3952 40.6754 12.6951V64.7249C40.6754 69.3246 38.7507 73.7359 35.3247 76.9884C31.8987 80.2409 27.252 82.0681 22.4069 82.0681ZM22.4069 82.0681H77.2124C79.635 82.0681 81.9583 81.1545 83.6713 79.5283C85.3843 77.902 86.3467 75.6963 86.3467 73.3965V56.0532C86.3467 53.7534 85.3843 51.5477 83.6713 49.9215C81.9583 48.2952 79.635 47.3816 77.2124 47.3816H66.5116M40.6754 22.8539L48.2431 15.6694C49.9561 14.0438 52.279 13.1305 54.7011 13.1305C57.1231 13.1305 59.446 14.0438 61.159 15.6694L74.0794 27.9355C75.7918 29.5616 76.7538 31.7669 76.7538 34.0663C76.7538 36.3657 75.7918 38.571 74.0794 40.1971L35.3228 76.9865M22.4069 64.7249H22.4526" stroke="url(#paint0_linear_99_484)" stroke-opacity="0.5" stroke-width="7" stroke-linecap="round" stroke-linejoin="round"/>
<defs>
<linearGradient id="paint0_linear_99_484" x1="1.89055" y1="4.02344" x2="84.0999" y2="84.5022" gradientUnits="userSpaceOnUse">
<stop stop-color="#00E0FF"/>
<stop offset="0.260417" stop-color="#4031F6"/>
<stop offset="0.520833" stop-color="#9859EA"/>
<stop offset="0.770833" stop-color="#F80EC4"/>
<stop offset="1" stop-color="#FF0000"/>
</linearGradient>
</defs>
</svg>
