<svg width="86" height="95" viewBox="0 0 86 95" fill="none" xmlns="http://www.w3.org/2000/svg">
<path d="M21.081 0.473145C18.3624 0.473145 15.7552 1.50319 13.8329 3.33669C11.9106 5.17019 10.8307 7.65695 10.8307 10.2499V39.4498C12.9764 38.6677 15.2725 38.1691 17.6642 38.0094V10.2499C17.6642 9.38559 18.0242 8.55667 18.665 7.9455C19.3057 7.33434 20.1748 6.99099 21.081 6.99099H51.832V23.2856C51.832 25.8786 52.912 28.3653 54.8343 30.1988C56.7566 32.0323 59.3638 33.0624 62.0824 33.0624H79.1663V81.9462C79.1663 82.8105 78.8063 83.6394 78.1655 84.2506C77.5247 84.8618 76.6557 85.2051 75.7495 85.2051H39.8733V91.7229H75.7495C78.468 91.7229 81.0753 90.6929 82.9976 88.8594C84.9199 87.0259 85.9998 84.5391 85.9998 81.9462V29.2429C85.9983 26.6513 84.9181 24.1663 82.9965 22.334L63.0835 3.33448C61.1611 1.50205 58.5543 0.472834 55.8365 0.473145H21.081ZM77.7517 26.5445H62.0824C61.1762 26.5445 60.3071 26.2012 59.6663 25.59C59.0256 24.9788 58.6656 24.1499 58.6656 23.2856V8.34018L77.7517 26.5445ZM17.6642 42.9108C12.9949 43.3174 8.65359 45.3741 5.49269 48.6772C2.3318 51.9803 0.579662 56.2911 0.580322 60.7632C0.580322 65.5169 2.56022 70.076 6.08446 73.4374C9.6087 76.7988 14.3886 78.6873 19.3726 78.6873C24.3566 78.6873 29.1365 76.7988 32.6608 73.4374C36.185 70.076 38.1649 65.5169 38.1649 60.7632C38.1653 58.2718 37.6211 55.8077 36.5671 53.5281C35.5131 51.2485 33.9724 49.2036 32.0434 47.5237C30.1143 45.8439 27.8393 44.5661 25.3635 43.7718C22.8877 42.9776 20.2655 42.6843 17.6642 42.9108ZM8.93093 94.5289C8.43889 94.8146 7.876 94.9702 7.30004 94.9799C6.72408 94.9895 6.1558 94.8528 5.65355 94.5838C5.15129 94.3147 4.73315 93.923 4.44205 93.4489C4.15095 92.9748 3.99738 92.4353 3.9971 91.8859V77.1621C8.21913 80.7794 13.6973 82.7754 19.3726 82.7642C25.048 82.7724 30.5254 80.7755 34.7481 77.1588V91.8859C34.7478 92.4353 34.5943 92.9748 34.3032 93.4489C34.0121 93.923 33.5939 94.3147 33.0917 94.5838C32.5894 94.8528 32.0211 94.9895 31.4452 94.9799C30.8692 94.9702 30.3063 94.8146 29.8143 94.5289L19.3726 88.464L8.93093 94.5256V94.5289Z" fill="url(#paint0_linear_99_498)" fill-opacity="0.5"/>
<defs>
<linearGradient id="paint0_linear_99_498" x1="-11.8443" y1="7.77548" x2="65.5922" y2="86.7643" gradientUnits="userSpaceOnUse">
<stop stop-color="#00E0FF"/>
<stop offset="0.208333" stop-color="#4031F6"/>
<stop offset="0.484375" stop-color="#9747FF"/>
<stop offset="0.723958" stop-color="#F80EC4"/>
<stop offset="0.989583" stop-color="#FF0000"/>
</linearGradient>
</defs>
</svg>
