<svg width="71" height="67" viewBox="0 0 71 67" fill="none" xmlns="http://www.w3.org/2000/svg">
<path d="M68.8172 10.5206C68.2936 10.2637 67.7094 10.1336 67.1181 10.1423C66.5268 10.1509 65.9473 10.298 65.4325 10.5701C63.0184 11.8533 60.6502 12.4734 58.1867 12.4734C51.0044 12.4734 44.2385 7.09989 37.9915 1.29096C36.668 0.0605646 34.2398 0.0605646 32.9162 1.29096C27.008 6.79312 19.9704 12.414 12.601 12.414C10.1658 12.414 7.83284 11.8071 5.47873 10.5635C4.42697 10.0159 3.15639 9.99941 2.09051 10.5239C1.02464 11.0484 0.322287 12.0446 0.226993 13.1661C0.18817 13.5916 -3.10475 55.6264 34.4021 66.0798C34.7295 66.1719 35.0696 66.2186 35.4115 66.2184H35.5068C35.8492 66.2184 36.1845 66.1722 36.5127 66.0831C74.1254 55.6264 70.7302 13.5817 70.6913 13.1595C70.6409 12.608 70.4428 12.0772 70.1153 11.6161C69.7878 11.1549 69.3414 10.7782 68.8172 10.5206ZM35.4574 59.4792C10.8258 52.0407 7.45519 28.4323 7.17284 18.3219C8.95518 18.7837 10.7693 19.0113 12.5975 19.0113C21.3928 19.0113 29.0092 13.8423 35.4539 8.18185C42.135 14.0798 49.5114 19.0707 58.1902 19.0707C60.0608 19.0707 61.9208 18.8266 63.749 18.345C63.4878 28.4554 60.1455 52.0473 35.4574 59.4792Z" fill="url(#paint0_linear_99_491)" fill-opacity="0.5"/>
<defs>
<linearGradient id="paint0_linear_99_491" x1="-10.1376" y1="5.45624" x2="42.8564" y2="69.6209" gradientUnits="userSpaceOnUse">
<stop stop-color="#00E0FF"/>
<stop offset="0.208333" stop-color="#4031F6"/>
<stop offset="0.484375" stop-color="#9747FF"/>
<stop offset="0.723958" stop-color="#F80EC4"/>
<stop offset="0.989583" stop-color="#FF0000"/>
</linearGradient>
</defs>
</svg>
