<svg width="67" height="79" viewBox="0 0 67 79" fill="none" xmlns="http://www.w3.org/2000/svg">
<path d="M4.34885 78.8517V70.9862H29.1558V55.2553H20.8868C15.1675 55.2553 10.2929 53.3375 6.26312 49.5018C2.23061 45.6687 0.214355 41.032 0.214355 35.5917C0.214355 31.659 1.35134 28.037 3.62531 24.7256C5.89929 21.4169 8.96571 19.0088 12.8246 17.5012C13.4447 12.5853 15.7022 8.47171 19.5969 5.16036C23.4888 1.85163 28.0533 0.197266 33.2903 0.197266C38.5274 0.197266 43.0918 1.85163 46.9838 5.16036C50.8785 8.47171 53.1359 12.5853 53.7561 17.5012C57.615 19.0088 60.6814 21.4169 62.9553 24.7256C65.2293 28.037 66.3663 31.659 66.3663 35.5917C66.3663 41.032 64.3514 45.6687 60.3217 49.5018C56.2892 53.3375 51.4132 55.2553 45.6938 55.2553H37.4248V70.9862H62.2318V78.8517H4.34885ZM20.8868 47.3899H45.6938C49.1392 47.3899 52.0678 46.2429 54.4796 43.9488C56.8914 41.6547 58.0973 38.869 58.0973 35.5917C58.0973 33.2321 57.3917 31.0691 55.9804 29.1028C54.5665 27.1364 52.7225 25.6944 50.4485 24.7768L46.1073 23.007L45.4871 18.4844C45.0736 15.5349 43.7134 13.0599 41.4063 11.0594C39.0965 9.06162 36.3912 8.06271 33.2903 8.06271C30.1895 8.06271 27.4855 9.06162 25.1784 11.0594C22.8686 13.0599 21.507 15.5349 21.0936 18.4844L20.4734 23.007L16.1322 24.7768C13.8582 25.6944 12.0156 27.1364 10.6043 29.1028C9.19035 31.0691 8.48335 33.2321 8.48335 35.5917C8.48335 38.869 9.68924 41.6547 12.101 43.9488C14.5128 46.2429 17.4414 47.3899 20.8868 47.3899Z" fill="url(#paint0_linear_99_499)" fill-opacity="0.5"/>
<defs>
<linearGradient id="paint0_linear_99_499" x1="-9.40775" y1="6.27469" x2="54.9645" y2="67.3754" gradientUnits="userSpaceOnUse">
<stop stop-color="#00E0FF"/>
<stop offset="0.208333" stop-color="#4031F6"/>
<stop offset="0.484375" stop-color="#9747FF"/>
<stop offset="0.723958" stop-color="#F80EC4"/>
<stop offset="0.989583" stop-color="#FF0000"/>
</linearGradient>
</defs>
</svg>
