<svg width="68" height="83" viewBox="0 0 68 83" fill="none" xmlns="http://www.w3.org/2000/svg">
<path d="M34.0248 57.2561L57.6503 81.8332C57.9204 82.1141 58.2532 82.3343 58.6244 82.4776C58.9956 82.621 59.3957 82.6839 59.7957 82.6619C60.1958 82.6398 60.5856 82.5333 60.9368 82.3502C61.2879 82.167 61.5917 81.9118 61.8258 81.603L66.136 75.8743C67.3359 74.2619 67.953 72.3237 67.8947 70.3503C67.8364 68.3768 67.1059 66.4745 65.8127 64.9284L41.7832 36.3361L48.5719 27.9988C52.0343 29.1125 55.8098 28.9597 59.1599 27.5704C62.51 26.1812 65.1936 23.6553 66.6858 20.487C68.178 17.3187 68.3715 13.7358 67.2283 10.4393C66.0852 7.1427 63.6877 4.36961 60.5048 2.66244C57.3219 0.955265 53.5826 0.436827 50.0183 1.20854C46.4541 1.98025 43.3213 3.98659 41.2329 6.8351C39.1444 9.68361 38.2504 13.1694 38.7259 16.6105C39.2014 20.0516 41.012 23.2006 43.8037 25.4414L38.4159 32.1419L29.122 21.2983C30.8637 18.2256 31.3354 14.6466 30.4449 11.2612C29.5543 7.87588 27.3655 4.92765 24.3066 2.99315C21.2477 1.05865 17.5387 0.277018 13.9049 0.801121C10.2711 1.32522 6.97392 3.11736 4.65821 5.82705C2.34251 8.53673 1.17482 11.9691 1.38352 15.4528C1.59222 18.9365 3.16231 22.221 5.7867 24.6639C8.41109 27.1069 11.901 28.5326 15.574 28.6622C19.2469 28.7917 22.8387 27.6159 25.6468 25.3646L61.6103 68.0997C62.1765 68.7799 62.4956 69.6158 62.5198 70.4824C62.5441 71.3491 62.2723 72.1999 61.745 72.9077L59.3743 76.0534L33.9979 49.686L8.67534 76.0534L6.30472 72.9077C5.77741 72.1999 5.50557 71.3491 5.52985 70.4824C5.55413 69.6158 5.87322 68.7799 6.43942 68.0997L27.5865 43.0111L23.9228 39.2005L2.37164 64.9284C1.07211 66.4767 0.337872 68.384 0.279561 70.3629C0.221257 72.3418 0.842045 74.2851 2.04837 75.8999L6.3586 81.6286C6.59272 81.9373 6.89645 82.1926 7.24763 82.3757C7.59882 82.5589 7.98862 82.6654 8.38864 82.6875C8.78867 82.7095 9.18883 82.6466 9.55998 82.5032C9.93114 82.3599 10.2639 82.1397 10.5341 81.8588L34.0248 57.2561ZM43.8306 14.7768C43.8253 13.0256 44.3674 11.3122 45.3883 9.8537C46.4093 8.39516 47.8631 7.25701 49.5658 6.58334C51.2685 5.90968 53.1435 5.73079 54.9533 6.06933C56.7631 6.40787 58.4265 7.24861 59.7327 8.48511C61.039 9.72161 61.9294 11.2983 62.2912 13.0155C62.653 14.7326 62.47 16.5132 61.7654 18.1315C61.0607 19.7499 59.866 21.1335 58.3326 22.1069C56.7993 23.0804 54.9961 23.6 53.1515 23.6C50.6841 23.6 48.3174 22.6712 46.5701 21.0173C44.8229 19.3633 43.8377 17.1192 43.8306 14.7768ZM6.87044 14.7768C6.86511 13.0256 7.40723 11.3122 8.42817 9.8537C9.44912 8.39516 10.903 7.25701 12.6057 6.58334C14.3083 5.90967 16.1833 5.73079 17.9931 6.06932C19.803 6.40786 21.4663 7.24861 22.7726 8.48511C24.0788 9.72161 24.9692 11.2983 25.331 13.0155C25.6929 14.7326 25.5099 16.5132 24.8052 18.1315C24.1005 19.7499 22.9059 21.1334 21.3725 22.1069C19.8391 23.0804 18.0359 23.6 16.1913 23.6C13.7239 23.6 11.3572 22.6712 9.60996 21.0173C7.86273 19.3633 6.87757 17.1192 6.87044 14.7768Z" fill="url(#paint0_linear_99_493)" fill-opacity="0.5"/>
<defs>
<linearGradient id="paint0_linear_99_493" x1="62.7345" y1="-11.2924" x2="-9.574" y2="41.5644" gradientUnits="userSpaceOnUse">
<stop stop-color="#00E0FF"/>
<stop offset="0.208333" stop-color="#4031F6"/>
<stop offset="0.484375" stop-color="#9747FF"/>
<stop offset="0.723958" stop-color="#F80EC4"/>
<stop offset="0.989583" stop-color="#FF0000"/>
</linearGradient>
</defs>
</svg>
